<?xml version="1.0" encoding="utf-8"?>
<!-- Generator: Adobe Illustrator 26.0.2, SVG Export Plug-In . SVG Version: 6.00 Build 0)  -->
<svg version="1.1" id="Layer_1" xmlns="http://www.w3.org/2000/svg" xmlns:xlink="http://www.w3.org/1999/xlink" x="0px" y="0px"
	 viewBox="0 0 155.9 108.6" style="enable-background:new 0 0 155.9 108.6;" xml:space="preserve">
<style type="text/css">
	.st0{fill:#868E96;}
	.st1{fill:none;stroke:#495057;stroke-width:0.25;stroke-linecap:round;}
	.st2{fill:#495057;}
	.st3{font-family:'Heliotrope4Regular';}
	.st4{font-size:8px;}
	.st5{fill:#228BE6;}
	.st6{fill:none;stroke:#1864AB;stroke-width:0.25;stroke-linecap:round;}
	.st7{fill:#FA5252;}
	.st8{fill:none;stroke:#C92A2A;stroke-width:0.25;stroke-linecap:round;}
	.st9{fill:#CED4DA;}
	.st10{fill:#40C057;}
	.st11{fill:none;stroke:#343A40;stroke-width:0.25;stroke-linecap:round;}
	.st12{fill:#868E96;stroke:#000000;stroke-width:0.25;stroke-miterlimit:10;}
	.st13{fill:none;stroke:#000000;stroke-width:0.25;stroke-miterlimit:10;}
	.st14{fill:#228BE6;stroke:#000000;stroke-width:0.25;stroke-miterlimit:10;}
	.st15{fill:#FA5252;stroke:#000000;stroke-width:0.25;stroke-miterlimit:10;}
	.st16{fill:#CED4DA;stroke:#000000;stroke-width:0.25;stroke-miterlimit:10;}
</style>
<g transform="translate(311.7163952840808 88.45829177072096) rotate(0 11.980747152828826 11.703125)">
	<path class="st0" d="M-246.7-69.1c0.5,0.1,1.2,0.4,1.5,0.7c0.3,0.4,0.2,0.9,0.2,1.4c0,0.5,0,1.4-0.4,1.8c-0.4,0.4-1.3,0.5-1.9,0.5
		c-0.6,0-1.1,0-1.5-0.3c-0.4-0.3-0.7-1-0.8-1.5c-0.1-0.5-0.2-1.1-0.1-1.5c0.2-0.4,0.6-0.7,1.1-0.9c0.6-0.2,1.8-0.3,2.3-0.3
		c0.4,0,0.3,0.2,0.3,0.3 M-246.6-69c0.4,0.1,0.7,0.2,1,0.5c0.3,0.3,0.5,0.9,0.6,1.4c0,0.5-0.1,1.1-0.3,1.5c-0.3,0.4-0.7,0.8-1.2,0.9
		c-0.5,0.1-1.4-0.2-1.9-0.4c-0.5-0.2-0.7-0.3-0.9-0.7c-0.2-0.4-0.6-1.3-0.4-1.8c0.2-0.5,0.9-0.9,1.4-1.2c0.5-0.3,1.4-0.5,1.7-0.6
		c0.3,0,0.1,0.4,0,0.5"/>
	<path class="st1" d="M-246.7-69.2c0.5,0.1,1,0.4,1.4,0.8c0.3,0.4,0.7,1.2,0.6,1.6c0,0.5-0.4,0.8-0.8,1.2c-0.4,0.4-0.9,0.9-1.4,0.9
		c-0.5,0.1-1.3-0.2-1.7-0.5c-0.4-0.3-0.7-0.7-0.8-1.2c-0.2-0.4-0.5-1.1-0.3-1.5c0.2-0.4,0.9-0.9,1.5-1.1c0.5-0.2,1.3-0.2,1.6-0.2
		c0.4,0,0.4,0.2,0.5,0.2 M-248-69.3c0.5-0.2,1.4,0.1,1.8,0.3c0.5,0.3,0.8,0.8,1,1.2c0.2,0.4,0.2,1,0.1,1.4s-0.5,0.8-1,1.2
		c-0.4,0.3-1.1,0.9-1.6,0.9c-0.5,0-1.1-0.5-1.5-0.9c-0.4-0.4-0.7-1.2-0.7-1.8c-0.1-0.5,0.1-1.2,0.4-1.5c0.3-0.3,1.3-0.4,1.6-0.5
		s0-0.2,0-0.2"/>
</g>
<g transform="translate(66.15271242689391 240.98212985280026) rotate(0 108 12.5)">
	<text transform="matrix(1 0 0 1 -56.365 -186.6678)" class="st2 st3 st4">decorated graph</text>
</g>
<g transform="translate(16.302745172100572 62.49058267743578) rotate(0 19.048828125 18.607421875)">
	<path class="st5" d="M-11.5-48.6c0.8-0.2,1.9,0,2.6,0.4c0.7,0.4,1.3,1.2,1.6,2c0.3,0.8,0.6,1.9,0.3,2.7c-0.3,0.8-1.1,1.7-1.9,2.1
		c-0.7,0.4-1.7,0.7-2.5,0.5c-0.8-0.1-1.8-0.7-2.3-1.4c-0.6-0.6-1-1.5-1-2.3s0.3-1.9,1-2.6c0.7-0.6,2.5-1.1,3.3-1.3
		c0.7-0.2,1-0.1,0.9-0.1 M-12.4-48.4c0.8-0.4,2.1-0.5,3-0.3c0.9,0.3,1.8,1.1,2.2,1.8c0.4,0.7,0.3,1.3,0.1,2.2
		c-0.2,0.8-0.4,2.3-1,2.8c-0.6,0.6-1.9,0.5-2.7,0.6c-0.8,0-1.5,0.1-2.1-0.4c-0.6-0.5-1.3-1.8-1.5-2.6c-0.2-0.9-0.3-1.8,0.2-2.5
		c0.4-0.6,2-1.1,2.3-1.4c0.3-0.3-0.5-0.3-0.5-0.3"/>
	<path class="st6" d="M-9.4-48.4c0.8,0.3,1.5,1.1,1.9,1.8c0.4,0.7,0.7,1.7,0.6,2.5c-0.1,0.8-0.7,1.6-1.3,2.2c-0.6,0.5-1.6,1-2.4,1
		c-0.9,0-2.1-0.6-2.7-1.2c-0.7-0.6-1.1-1.5-1.3-2.2c-0.1-0.8,0-1.6,0.4-2.3c0.4-0.7,1.1-1.7,2.1-1.9c0.9-0.2,2.9,0.4,3.6,0.6
		c0.7,0.2,0.5,0.6,0.5,0.6 M-10.3-48.8c0.8,0,2.1,0.6,2.7,1.3c0.5,0.7,0.6,2,0.6,2.8c-0.1,0.8-0.5,1.7-1,2.2c-0.5,0.6-1.2,1-2,1.2
		c-0.8,0.2-2,0.3-2.8-0.1c-0.7-0.4-1.4-1.5-1.6-2.2c-0.2-0.8-0.1-1.6,0.2-2.4c0.3-0.8,0.8-1.9,1.5-2.3c0.7-0.4,2.2-0.2,2.7-0.2
		c0.5-0.1,0.1-0.2,0-0.1"/>
</g>
<g transform="translate(22.89986680913057 136.78572396085696) rotate(0 19.048828125 18.607421875)">
	<path class="st5" d="M-17.7-107.6c0.7-0.4,2-0.3,2.8,0c0.8,0.3,1.6,0.9,2,1.6s0.7,1.6,0.6,2.4s-0.5,1.8-1.1,2.4
		c-0.6,0.5-1.6,0.8-2.4,0.8c-0.8,0-1.8-0.2-2.5-0.7c-0.7-0.5-1.3-1.4-1.5-2.1c-0.2-0.8-0.2-1.6,0.3-2.4c0.5-0.7,2.3-1.7,2.9-2
		c0.6-0.3,0.9-0.1,0.9-0.1 M-14.6-107.4c0.7,0.4,1.6,1.4,1.9,2.2c0.4,0.8,0.4,1.7,0.2,2.5c-0.2,0.8-0.8,1.8-1.4,2.2
		c-0.6,0.4-1.5,0.2-2.3,0.1c-0.8-0.1-2-0.3-2.6-0.8c-0.7-0.5-1.3-1.5-1.3-2.3c-0.1-0.9,0.4-2.1,1-2.8c0.5-0.7,1.3-1.1,2.1-1.3
		c0.8-0.2,2.3,0.3,2.8,0.4c0.5,0,0.2-0.2,0.1-0.1"/>
	<path class="st6" d="M-14.1-107.4c0.7,0.3,1.5,1.2,1.8,2c0.3,0.8,0.1,1.9-0.2,2.7c-0.3,0.8-0.8,1.6-1.5,2.1
		c-0.7,0.4-1.9,0.7-2.7,0.5c-0.8-0.1-1.5-0.8-2-1.4c-0.5-0.6-1.1-1.4-1.2-2.2c-0.1-0.8,0.3-2.1,0.8-2.7c0.5-0.7,1.4-1.3,2.3-1.4
		c0.8-0.1,2.3,0.8,2.8,0.9c0.5,0.1,0.5-0.1,0.5-0.1 M-15.1-107.6c0.8,0.2,1.9,0.7,2.4,1.4c0.5,0.6,0.5,1.7,0.4,2.5
		c-0.1,0.8-0.5,1.9-1.1,2.4c-0.6,0.5-1.6,0.8-2.4,0.8c-0.8,0.1-1.7,0-2.4-0.5c-0.7-0.5-1.4-1.6-1.6-2.4c-0.3-0.8-0.4-1.8,0-2.5
		c0.4-0.7,1.6-1.4,2.4-1.7c0.8-0.2,2,0.2,2.3,0.2c0.4,0,0-0.4,0-0.4"/>
</g>
<g transform="translate(99.75810055101044 128.66233586038692) rotate(0 11.980747152828826 11.703125)">
	<path class="st7" d="M-77.8-101.3c0.5,0.1,1.1,0.7,1.4,1.1c0.3,0.5,0.4,1.2,0.3,1.7s-0.4,0.9-0.8,1.2c-0.4,0.3-1,0.6-1.5,0.7
		s-1.3-0.2-1.7-0.4c-0.4-0.2-0.7-0.6-0.8-1.1c-0.1-0.5-0.2-1.3,0.1-1.8c0.2-0.5,0.7-1.1,1.3-1.3c0.5-0.2,1.6,0.3,1.9,0.3
		c0.3,0,0-0.3,0-0.2 M-79.4-101.3c0.5-0.1,1.5,0.1,2,0.4c0.5,0.3,0.7,0.7,0.9,1.2c0.2,0.5,0.3,1.3,0.2,1.7c-0.1,0.4-0.4,0.5-0.8,0.8
		c-0.4,0.3-1.1,0.9-1.6,0.9c-0.6,0-1.3-0.6-1.7-1c-0.4-0.4-0.7-1-0.8-1.5c0-0.5,0.1-1.2,0.5-1.6c0.4-0.4,1.5-0.9,1.8-1
		c0.3-0.1,0.1,0.3,0.1,0.5"/>
	<path class="st8" d="M-78.7-101.2c0.5-0.1,1.1-0.1,1.5,0.2c0.4,0.3,0.7,1.1,0.9,1.6c0.1,0.5,0.1,0.8-0.1,1.3s-0.6,1.3-1.1,1.5
		s-1.1,0.1-1.6,0c-0.5-0.1-1-0.4-1.4-0.8c-0.3-0.4-0.6-1.3-0.6-1.8c0-0.5,0.1-1,0.6-1.4c0.5-0.3,1.8-0.5,2.3-0.6
		c0.5,0,0.7,0.3,0.7,0.3 M-78.8-101.2c0.5,0,1,0.3,1.5,0.6c0.4,0.3,1.1,0.8,1.2,1.3c0.2,0.5,0,1.1-0.2,1.5c-0.2,0.4-0.5,0.7-1.1,0.9
		c-0.6,0.2-1.7,0.3-2.3,0.2c-0.6-0.1-0.8-0.5-1-1c-0.2-0.4-0.2-1.1-0.2-1.6c0.1-0.5,0.2-1.2,0.5-1.5
		C-80-101.1-79.1-101.1-78.8-101.2c0.2-0.1,0.2-0.4,0.2-0.3"/>
</g>
<g transform="translate(95.88868152318162 71.03147648538692) rotate(0 11.980747152828826 11.703125)">
	<path class="st7" d="M-75.7-55.6c0.5-0.1,1.4,0.4,1.9,0.8c0.5,0.4,0.8,0.8,0.9,1.3c0.1,0.5-0.2,1.3-0.5,1.8
		c-0.3,0.5-0.7,0.8-1.2,0.9c-0.5,0.2-1.4,0.2-1.9,0.1c-0.5-0.2-1-0.7-1.2-1.1c-0.2-0.4-0.2-1-0.1-1.5c0.1-0.5,0.4-1.3,0.8-1.7
		c0.4-0.3,1.4-0.2,1.8-0.2c0.4,0,0.6,0.1,0.6,0.2 M-75-55.4c0.4,0,0.7,0.4,1.1,0.8c0.3,0.4,0.8,1.1,0.9,1.5c0.1,0.5-0.2,0.9-0.5,1.3
		c-0.3,0.3-0.8,0.6-1.3,0.7c-0.5,0.2-1.4,0.6-1.8,0.3c-0.4-0.2-0.6-1.1-0.7-1.7c-0.1-0.5-0.2-1.2-0.2-1.6c0.1-0.4,0.1-0.6,0.5-0.9
		c0.4-0.3,1.5-0.7,1.8-0.8c0.3-0.1,0.1,0.4,0.1,0.4"/>
	<path class="st8" d="M-75.9-55.4c0.5-0.1,1,0.1,1.4,0.3c0.4,0.2,0.9,0.7,1.1,1.2c0.2,0.5,0.4,1.2,0.2,1.7c-0.2,0.5-0.8,1-1.2,1.3
		c-0.4,0.3-0.9,0.5-1.4,0.4c-0.5-0.1-1-0.6-1.4-1.1c-0.4-0.4-0.8-1-0.8-1.5c0-0.5,0.2-1.2,0.6-1.6c0.4-0.4,1.4-0.5,1.7-0.6
		c0.3-0.1,0.3-0.1,0.4-0.1 M-75.3-55.6c0.6,0.1,1.5,0.7,1.8,1.1c0.3,0.4,0.1,1.1,0.1,1.5c0,0.5,0.3,0.9,0,1.3
		c-0.3,0.4-1.1,1-1.7,1.2c-0.6,0.1-1.2,0-1.7-0.3s-0.8-1.1-1-1.6c-0.2-0.5-0.5-1-0.3-1.5c0.1-0.5,0.6-1,1.1-1.3
		c0.5-0.3,1.5-0.3,1.9-0.3c0.3,0,0.1,0.2,0,0.2"/>
</g>
<g transform="translate(168.78321277318162 91.19944523538692) rotate(0 11.980747152828826 11.703125)">
	<path class="st0" d="M-132.7-71.3c0.5,0.2,1.1,0.7,1.4,1.2c0.2,0.4,0.1,1,0,1.5c-0.1,0.5-0.5,1-0.8,1.3s-0.9,0.7-1.4,0.7
		c-0.5,0-1.4-0.3-1.8-0.7c-0.4-0.4-0.5-1-0.6-1.5c-0.1-0.5-0.2-1,0.1-1.4s0.9-1.1,1.5-1.3c0.6-0.1,1.8,0.2,2.3,0.4
		c0.5,0.2,0.6,0.7,0.6,0.8 M-133.5-71.5c0.5,0,0.8,0.4,1.1,0.7c0.4,0.3,0.8,0.7,1,1.1c0.2,0.5,0.4,1.3,0.2,1.7
		c-0.2,0.4-0.8,0.7-1.4,0.8c-0.5,0.2-1.4,0.3-1.9,0.2c-0.5-0.1-0.9-0.2-1.2-0.6c-0.3-0.4-0.5-1.3-0.5-1.8c0.1-0.6,0.6-1.4,1-1.7
		c0.4-0.4,1.2-0.3,1.5-0.4S-133.6-71.6-133.5-71.5"/>
	<path class="st1" d="M-132.5-71.4c0.5,0.1,1,0.8,1.3,1.3c0.2,0.5,0.3,1.1,0.2,1.6c-0.2,0.5-0.7,1.1-1.1,1.4
		c-0.5,0.3-1.2,0.3-1.7,0.3c-0.5,0-0.8-0.1-1.2-0.4c-0.4-0.3-0.9-0.9-1-1.5c-0.1-0.6,0.1-1.4,0.4-1.9c0.3-0.4,1-0.7,1.6-0.8
		c0.6-0.1,1.4,0.3,1.9,0.4c0.4,0.1,0.6,0.4,0.6,0.4 M-132.6-71.5c0.4,0.2,0.8,1.2,1,1.7c0.2,0.5,0.6,1.1,0.5,1.5
		c-0.1,0.4-0.8,0.8-1.3,1.1c-0.5,0.3-1,0.5-1.5,0.5c-0.5,0-1.2-0.3-1.6-0.7c-0.4-0.4-0.6-1.1-0.6-1.6c0-0.5,0.3-0.9,0.7-1.3
		c0.3-0.4,0.8-1.2,1.4-1.3c0.5-0.1,1.5,0.4,1.8,0.5C-132-71.2-132.5-71.5-132.6-71.5"/>
</g>
<g transform="translate(209.34180652318162 41.68772648538692) rotate(0 11.980747152828826 11.703125)">
	<path class="st0" d="M-165.3-32c0.5,0,0.9,0.3,1.1,0.6c0.3,0.4,0.6,1,0.6,1.6c0,0.5-0.2,1.3-0.5,1.7c-0.3,0.4-0.8,0.5-1.3,0.6
		c-0.5,0.1-1.2,0-1.7-0.2c-0.4-0.2-0.7-0.6-0.9-1.1c-0.2-0.5-0.5-1.3-0.3-1.8c0.2-0.5,0.8-0.8,1.3-1c0.5-0.2,1.4-0.4,1.8-0.4
		c0.4-0.1,0.5,0,0.5,0.1 M-165.6-31.8c0.5,0,0.8,0.1,1.2,0.4c0.4,0.3,0.9,1,1,1.5c0.1,0.5-0.1,1-0.4,1.4c-0.3,0.4-1,0.8-1.5,1
		c-0.5,0.2-1,0.2-1.5,0.1c-0.4-0.1-0.8-0.4-1-0.8c-0.3-0.5-0.7-1.4-0.6-1.9c0.1-0.5,0.6-0.8,1-1.1c0.4-0.3,0.9-0.7,1.2-0.9
		c0.3-0.1,0.4,0,0.4,0.1"/>
	<path class="st1" d="M-166-32.2c0.5-0.1,0.9,0.1,1.3,0.4c0.4,0.3,0.9,1,1.1,1.4c0.2,0.5,0.4,0.9,0.2,1.4c-0.2,0.5-0.8,1.1-1.3,1.4
		c-0.5,0.3-1.2,0.3-1.7,0.2c-0.5-0.1-1.1-0.3-1.3-0.7c-0.3-0.4-0.4-1.2-0.4-1.7c0-0.5-0.1-1,0.4-1.3c0.4-0.4,1.8-0.6,2.1-0.8
		s0.1-0.3,0-0.3 M-165.2-31.8c0.5,0.1,0.8,0.3,1.1,0.7c0.3,0.4,0.8,1.2,0.8,1.6c0,0.5-0.2,0.8-0.6,1.2c-0.4,0.4-1,1.1-1.6,1.2
		c-0.6,0.1-1.5-0.3-1.9-0.5c-0.4-0.3-0.4-0.6-0.5-1.1c-0.1-0.5-0.4-1.4-0.2-1.9c0.2-0.5,0.9-0.9,1.4-1.2c0.4-0.2,1-0.2,1.2-0.3
		c0.2-0.1-0.1-0.2-0.1-0.2"/>
</g>
<g transform="translate(203.47461902318162 131.82053898538692) rotate(0 11.980747152828826 11.703125)">
	<path class="st0" d="M-160.6-103.9c0.5,0.1,1.1,0.5,1.4,1c0.3,0.5,0.4,1.3,0.3,1.9c0,0.5-0.3,1-0.6,1.4c-0.3,0.3-0.9,0.7-1.4,0.7
		c-0.5,0.1-1.1-0.1-1.6-0.4c-0.5-0.3-1-0.8-1.2-1.4c-0.2-0.5,0.1-1.2,0.3-1.7c0.2-0.5,0.5-0.8,1-1.1
		C-161.9-103.7-160.9-103.8-160.6-103.9c0.4-0.1,0.3,0,0.3,0.1 M-160.2-103.8c0.4,0.2,0.9,1,1.2,1.5c0.2,0.5,0.4,1.1,0.3,1.5
		c-0.1,0.5-0.5,1-0.9,1.3c-0.4,0.3-0.9,0.5-1.4,0.5c-0.6,0-1.5-0.3-1.9-0.6c-0.5-0.3-0.8-0.9-0.8-1.4c0-0.5,0.5-1.2,0.8-1.6
		c0.3-0.4,0.4-0.9,0.9-1.1c0.5-0.1,1.7,0.3,2,0.3c0.3,0,0-0.1,0-0.1"/>
	<path class="st1" d="M-160.4-103.8c0.5,0.2,1.2,0.7,1.5,1.1c0.3,0.4,0.1,0.9,0,1.5c-0.1,0.5-0.1,1.4-0.5,1.7
		c-0.4,0.4-1.3,0.5-1.8,0.4c-0.5,0-1.1-0.3-1.4-0.7c-0.4-0.3-0.7-0.8-0.8-1.3c-0.1-0.5-0.1-1.3,0.1-1.7c0.2-0.4,0.5-0.6,1.1-0.8
		s1.8-0.2,2.2-0.2c0.4,0,0.1,0.2,0.1,0.2 M-161.3-103.8c0.6,0,1.4,0.4,1.8,0.7c0.4,0.3,0.5,0.6,0.6,1.1c0.1,0.5,0.2,1.5-0.1,2
		s-1.1,0.7-1.6,0.8c-0.5,0.2-0.8,0.2-1.3,0.1c-0.5-0.1-1.1-0.4-1.5-0.8c-0.4-0.4-0.8-1.1-0.7-1.6c0.1-0.5,0.7-1.1,1.2-1.5
		c0.5-0.4,1.3-0.7,1.6-0.8s-0.2,0.1-0.2,0.2"/>
</g>
<g transform="translate(274.16487333122666 45.36006775215384) rotate(0 11.980747152828826 11.703125)">
	<path class="st0" d="M-217-34.8c0.5,0,1.1,0.3,1.5,0.7c0.3,0.4,0.5,1.2,0.5,1.7c0,0.5-0.2,0.9-0.5,1.3c-0.4,0.3-1.1,0.7-1.6,0.8
		c-0.5,0.1-1.2,0.2-1.6-0.1c-0.4-0.3-0.8-1-0.9-1.5c-0.1-0.5,0-1.2,0.1-1.6c0.2-0.4,0.4-0.7,0.8-0.9c0.5-0.3,1.7-0.5,2.1-0.6
		c0.4,0,0.3,0.3,0.3,0.4 M-216.7-35.1c0.5,0.1,1.1,0.8,1.5,1.2c0.3,0.4,0.5,0.6,0.4,1.1c-0.1,0.4-0.6,1.1-1,1.6
		c-0.4,0.4-0.8,1-1.3,1.1c-0.4,0.1-0.9-0.2-1.3-0.4c-0.4-0.2-1-0.5-1.1-1c-0.2-0.5-0.2-1.3,0-1.9c0.2-0.6,0.5-1.2,1-1.5
		c0.5-0.2,1.5,0.1,1.8,0.1c0.3,0,0,0,0,0"/>
	<path class="st1" d="M-217.3-34.9c0.5,0,1.2,0.2,1.5,0.5c0.4,0.3,0.6,0.9,0.7,1.4c0.1,0.5-0.1,1.2-0.4,1.7c-0.3,0.5-0.7,1-1.1,1.1
		c-0.5,0.1-1.3-0.1-1.8-0.3c-0.5-0.2-0.8-0.5-1-0.9c-0.2-0.5-0.5-1.3-0.4-1.9c0.1-0.5,0.5-1,1-1.3c0.5-0.3,1.7-0.3,2-0.4
		c0.3-0.1,0-0.1-0.1-0.1 M-216-34.4c0.4,0.2,0.5,0.5,0.7,0.9c0.2,0.4,0.6,1.2,0.5,1.7c-0.1,0.5-0.9,1.2-1.3,1.4
		c-0.4,0.2-0.8,0-1.3-0.2c-0.5-0.2-1.3-0.4-1.7-0.8c-0.4-0.4-0.8-1-0.8-1.4c0-0.4,0.6-0.8,1-1.1c0.4-0.3,0.8-0.8,1.2-0.9
		c0.4-0.2,1.1,0,1.3,0c0.2,0,0.1,0,0.1,0.1"/>
</g>
<g transform="translate(277.6972752731816 133.54319523538692) rotate(0 11.980747152828826 11.703125)">
	<path class="st0" d="M-220.8-105.2c0.5-0.1,1.3,0.1,1.8,0.3c0.5,0.2,0.9,0.6,1.1,1.1c0.2,0.5,0.2,1.3,0.1,1.8
		c-0.1,0.5-0.4,0.9-0.9,1.2c-0.5,0.3-1.4,0.6-1.9,0.5c-0.5,0-1-0.4-1.3-0.8c-0.4-0.3-0.8-0.8-0.9-1.3c-0.1-0.5,0.1-1.5,0.6-1.9
		c0.4-0.4,1.6-0.5,2.1-0.7c0.5-0.1,0.7-0.2,0.7-0.2 M-219.6-105.1c0.5,0.1,1.4,0.4,1.6,0.8c0.3,0.4,0.2,1.3,0.1,1.8
		c-0.1,0.5-0.3,1-0.7,1.3c-0.4,0.3-1,0.6-1.5,0.6c-0.6,0-1.4-0.1-1.8-0.4c-0.5-0.3-1-0.8-1-1.3c0-0.5,0.5-1.2,0.8-1.7
		c0.3-0.5,0.7-1,1.1-1.2c0.4-0.2,1.2-0.1,1.4-0.1C-219.4-105.3-219.6-105.2-219.6-105.1"/>
	<path class="st1" d="M-219.7-105.1c0.5,0.1,1.1,0.5,1.5,0.9c0.3,0.4,0.6,0.9,0.6,1.4c0,0.5-0.3,1.4-0.7,1.7c-0.4,0.4-1,0.4-1.6,0.4
		c-0.6,0-1.5-0.1-1.9-0.4c-0.5-0.2-0.8-0.6-0.9-1.1c-0.1-0.5,0.1-1.3,0.3-1.7c0.2-0.4,0.6-0.8,1.1-1c0.5-0.2,1.5-0.3,1.8-0.3
		c0.3-0.1,0-0.1,0-0.1 M-219.9-105c0.5,0,1.1,0.3,1.5,0.7c0.3,0.4,0.6,1.1,0.6,1.6c0,0.5-0.4,1.1-0.7,1.5c-0.3,0.4-0.8,0.9-1.3,1
		c-0.5,0-1.3-0.4-1.8-0.7c-0.5-0.3-0.9-0.7-1.1-1.1c-0.2-0.5-0.3-1.1,0-1.6s0.9-0.9,1.4-1.2c0.5-0.3,1.4-0.4,1.6-0.5
		c0.2-0.1-0.3,0-0.2,0.1"/>
</g>
<g>
	<g transform="translate(57.24910963735783 81.43304359114387) rotate(0 21.052815780741753 0.03075835832851226)">
		<path class="st1" d="M-47.5-63.7c1.4,0,7.1-0.2,8.6-0.2 M-47.1-63.9c1.5,0,7.3,0.2,8.7,0.3"/>
	</g>
</g>
<g>
	<g transform="translate(61.86314224625937 153.15535113565772) rotate(0 18.116470737410054 -4.5930190779268685)">
		<path class="st1" d="M-50.7-120.8c1.2-0.3,6-1.5,7.1-1.8 M-50.9-121.1c1.2-0.2,6-1,7.2-1.3"/>
	</g>
</g>
<g>
	<g transform="translate(122.52595484539313 90.6774163295994) rotate(0 21.118267037534565 6.394099964086877)">
		<path class="st1" d="M-99-71.3c1.5,0.5,7,2.3,8.4,2.8 M-99.2-70.9c1.5,0.5,7,2.3,8.4,2.7"/>
	</g>
</g>
<g>
	<g transform="translate(124.34802177153085 133.8303088479422) rotate(0 19.40216151916775 -12.791843502445204)">
		<path class="st1" d="M-100.8-105.7c1.3-0.9,7-4.3,8.3-5.1 M-100.5-105.3c1.3-0.9,6.6-4.3,7.9-5.3"/>
	</g>
</g>
<g>
	<g transform="translate(186.93973199590653 93.82623320579927) rotate(0 13.40858124144421 -13.45839931741358)">
		<path class="st1" d="M-150.5-73.5c0.9-0.9,4.7-4.7,5.6-5.6 M-150.1-73.7c0.9-0.9,4.2-4.3,5.1-5.2"/>
	</g>
</g>
<g>
	<g transform="translate(236.1231591741 53.598771449437436) rotate(0 16.721129156472216 0.5505191148787105)">
		<path class="st1" d="M-189.5-41.4c1.2,0,5.6-0.2,6.8-0.1 M-189.7-41.6c1.1,0.1,5.7,0.2,6.8,0.2"/>
	</g>
</g>
<g>
	<g transform="translate(185.95413611733375 110.36718415035779) rotate(0 8.654424732005111 9.78673900153953)">
		<path class="st1" d="M-149.7-86.9c0.6,0.7,3.2,3.3,3.9,4 M-150-86.4c0.5,0.7,3.3,3.2,4,3.8"/>
	</g>
</g>
<g>
	<g transform="translate(229.79522610823983 148.87029508246036) rotate(0 23.768585065256673 -0.009768588236596543)">
		<path class="st1" d="M-184.4-117.4c1.6,0,7.9-0.1,9.6-0.1 M-184.6-117.6c1.6,0.1,7.9,0.5,9.5,0.5"/>
	</g>
</g>
<g>
	<g transform="translate(305.5957780317832 142.9099922893693) rotate(0 9.219749873986416 -13.423880095821943)">
		<path class="st1" d="M-244.7-112.7c0.7-0.9,3.1-4.5,3.6-5.4 M-244.9-112.9c0.7-0.8,3-4.1,3.7-4.9"/>
	</g>
</g>
<g>
	<g transform="translate(302.974976654843 63.92069547081766) rotate(0 13.848549451569113 10.223270917725728)">
		<path class="st1" d="M-242.8-49.7c1,0.6,4.9,3.2,5.9,3.8 M-243.1-49.8c1,0.8,5,3.6,6.1,4.3"/>
	</g>
</g>
<g>
	<g transform="translate(287.9620770162061 44.22448003937794) rotate(0 2.977152508201584 -10.33862327862363)">
		<path class="st1" d="M-230.7-34.3c0.2-0.7,1-3.2,1.2-3.9 M-231-33.9c0.2-0.7,1.1-3.8,1.3-4.6"/>
	</g>
</g>
<g>
	<g transform="translate(220.38717676179465 41.50972774731878) rotate(0 -3.412247184802993 -10.632985453607446)">
		<path class="st1" d="M-177.2-31.9c-0.3-0.7-1.2-3.3-1.5-4.1 M-176.7-32.1c-0.3-0.8-1.7-3.6-2-4.2"/>
	</g>
</g>
<g>
	<g transform="translate(211.06199134698932 180.37536607999658) rotate(0 1.8303708907499754 -11.3525788752641)">
		<path class="st1" d="M-169.7-142.7c0.2-0.8,1-3.9,1.1-4.6 M-170-142.3c0.2-0.8,1.2-4,1.3-4.8"/>
	</g>
</g>
<g>
	<g transform="translate(300.1077524498778 180.17052746397684) rotate(0 -3.7348063832445746 -10.859091593055524)">
		<path class="st1" d="M-240.6-142.3c-0.2-0.7-1.1-3.7-1.3-4.4 M-240.9-142.5c-0.3-0.7-1-3.3-1.1-4"/>
	</g>
</g>
<g transform="translate(197.6796480579901 181.56045430416242) rotate(0 9.16908766261156 8.956618287880701)">
	<path class="st9" d="M-157-143.6c0.4,0,1,0.6,1.4,1c0.3,0.3,0.5,0.7,0.5,1.1c0,0.4-0.3,0.8-0.6,1c-0.3,0.3-0.8,0.4-1.2,0.5
		c-0.4,0.1-0.9,0.3-1.2,0.2c-0.3-0.2-0.5-0.9-0.6-1.2c-0.2-0.4-0.4-0.6-0.3-1c0.1-0.4,0.5-1.1,0.9-1.3s1.3,0,1.6,0.1
		c0.4,0,0.6,0.1,0.5,0.1 M-158-143.5c0.3-0.3,1-0.1,1.4,0c0.4,0.1,0.8,0.5,1.1,0.8c0.3,0.3,0.5,0.7,0.5,1.1c0,0.4-0.1,1-0.4,1.3
		c-0.3,0.3-0.9,0.2-1.3,0.3c-0.4,0.1-0.7,0.3-1,0.1c-0.3-0.2-0.8-0.8-0.9-1.2c-0.1-0.4,0.1-1,0.2-1.4c0.1-0.4,0.4-0.7,0.5-0.8
		c0.2-0.1,0.4,0,0.4,0"/>
	<path class="st1" d="M-157.1-143.5c0.4-0.1,1,0.1,1.3,0.3c0.3,0.3,0.6,0.8,0.6,1.2c0.1,0.4-0.1,0.9-0.3,1.2
		c-0.2,0.3-0.5,0.5-0.9,0.6c-0.4,0.2-0.9,0.5-1.3,0.4c-0.4-0.1-0.8-0.4-1-0.7c-0.2-0.3-0.3-0.9-0.2-1.3c0.1-0.4,0.3-0.9,0.6-1.2
		c0.3-0.3,1-0.4,1.3-0.5c0.3,0,0.5,0.2,0.5,0.2 M-157.5-143.2c0.4-0.1,1.5-0.2,1.8,0s0.2,0.9,0.3,1.4c0.1,0.4,0.3,1,0.1,1.3
		c-0.2,0.3-0.9,0.3-1.3,0.4c-0.4,0.1-0.8,0.2-1.1,0.1s-0.8-0.6-1-0.8c-0.2-0.2,0-0.3,0-0.7c0.1-0.4,0.2-1.2,0.4-1.5
		C-158.1-143.3-157.7-143.2-157.5-143.2c0.2-0.1,0.2-0.3,0.3-0.3"/>
</g>
<g transform="translate(292.76343687141866 179.422727423774) rotate(0 9.16908766261156 8.956618287880701)">
	<path class="st9" d="M-233.3-141.9c0.4-0.1,0.8,0.2,1.2,0.4c0.4,0.2,1,0.6,1.2,0.9c0.2,0.3,0,0.7-0.1,1.1c-0.1,0.4-0.4,1.1-0.7,1.3
		c-0.3,0.2-0.7,0-1.1-0.1c-0.4-0.1-1.1-0.1-1.4-0.3c-0.3-0.3-0.4-0.8-0.4-1.3c0-0.4-0.1-0.9,0.2-1.2s1.5-0.6,1.9-0.8
		c0.4-0.1,0.5,0.1,0.5,0.1 M-232.6-141.6c0.4,0.1,1.1,0.2,1.3,0.5c0.2,0.3,0.1,0.7,0,1.1c-0.1,0.4-0.2,1.1-0.4,1.4
		c-0.3,0.3-0.9,0.4-1.2,0.5c-0.3,0.1-0.4,0.2-0.8-0.1c-0.3-0.2-1.1-1-1.2-1.3c-0.2-0.4,0-0.6,0.2-0.9c0.2-0.3,0.6-0.7,1.1-0.9
		c0.4-0.2,1.1-0.5,1.4-0.5c0.3,0,0.2,0.1,0.2,0.2"/>
	<path class="st1" d="M-232.4-141.8c0.4,0.1,1.1,0.8,1.3,1.1c0.2,0.3,0,0.5-0.1,0.9c-0.1,0.3,0,0.8-0.3,1.1
		c-0.3,0.3-0.9,0.8-1.4,0.9c-0.4,0.1-1-0.3-1.3-0.5c-0.3-0.2-0.5-0.5-0.6-0.9c0-0.4,0.2-0.9,0.3-1.3c0.2-0.4,0.3-0.9,0.7-1
		c0.4-0.2,1.3,0,1.7,0c0.3,0,0.3,0.2,0.3,0.2 M-232.5-141.8c0.4,0.1,1.1,0.6,1.3,0.9c0.2,0.3,0,0.5,0,0.8c0,0.3,0.2,0.8,0,1.1
		c-0.2,0.3-0.8,0.7-1.2,0.8c-0.4,0.1-1,0.1-1.3-0.1c-0.3-0.2-0.6-0.7-0.8-1c-0.2-0.4-0.4-0.9-0.3-1.2c0.1-0.3,0.6-0.5,1-0.7
		c0.4-0.2,1.2-0.3,1.4-0.5c0.2-0.1-0.4-0.3-0.3-0.2"/>
</g>
<g transform="translate(202.70250785656322 10.000000000000028) rotate(0 9.16908766261156 8.956618287880701)">
	<path class="st9" d="M-160.6-6.7c0.4,0.1,0.9,0.6,1.1,0.9c0.2,0.3,0.3,0.8,0.2,1.1c-0.1,0.4-0.3,0.8-0.6,1c-0.3,0.2-0.6,0.3-1,0.3
		c-0.4,0-1.2-0.1-1.5-0.3c-0.3-0.2-0.3-0.8-0.3-1.1c0-0.3,0-0.6,0.1-0.9c0.2-0.3,0.6-0.8,0.9-1c0.4-0.1,1,0.1,1.3,0.1
		c0.2,0,0.2-0.1,0.2,0 M-160.9-6.7c0.3,0,0.8-0.1,1.1,0.2c0.3,0.3,0.6,1.2,0.6,1.6c0,0.4-0.1,0.4-0.4,0.8c-0.3,0.3-1,1-1.4,1.2
		c-0.4,0.2-1,0.2-1.2-0.1c-0.3-0.3-0.2-1.1-0.4-1.4c-0.2-0.4-0.6-0.5-0.6-0.8c0-0.3,0.5-0.6,0.8-0.9c0.3-0.3,1-0.7,1.2-0.8
		c0.3-0.1,0.4-0.1,0.4-0.1"/>
	<path class="st1" d="M-160.7-6.9c0.4,0.1,1,0.5,1.2,0.8c0.3,0.4,0.4,0.9,0.3,1.3c-0.1,0.4-0.5,1-0.8,1.2c-0.3,0.3-0.7,0.3-1.1,0.3
		s-0.8-0.1-1.1-0.4c-0.3-0.3-0.7-0.8-0.8-1.2c-0.1-0.4,0.2-0.6,0.4-1c0.2-0.3,0.3-0.8,0.6-0.9c0.4-0.2,1.4,0.1,1.7,0
		c0.2,0-0.2-0.2-0.2-0.2 M-161.1-7c0.4-0.1,0.6,0.3,0.8,0.5s0.6,0.4,0.7,0.8c0.1,0.3,0.2,0.9,0,1.3c-0.2,0.4-0.6,1.2-0.9,1.4
		c-0.3,0.2-0.6,0.1-0.9-0.1c-0.3-0.2-0.8-0.5-1.1-0.9c-0.3-0.3-0.8-0.8-0.7-1.2c0-0.4,0.7-1,1-1.3c0.3-0.3,0.5-0.6,0.6-0.6
		c0.2,0,0.3,0.5,0.3,0.5"/>
</g>
<g transform="translate(284.6953547336519 10.902673543601026) rotate(0 9.16908766261156 8.956618287880701)">
	<path class="st10" d="M-226.3-7.4c0.4,0,1.1,0.2,1.3,0.5c0.3,0.2,0.3,0.7,0.3,1c0,0.4,0.1,0.9-0.2,1.2c-0.2,0.3-0.7,0.7-1.1,0.8
		c-0.4,0.1-1.1-0.1-1.5-0.2c-0.4-0.2-0.5-0.4-0.7-0.7c-0.1-0.3-0.3-0.9-0.2-1.3c0.1-0.4,0.5-0.9,0.9-1.1c0.4-0.2,1.3-0.1,1.5-0.1
		s-0.1,0-0.1,0 M-226.9-7.3c0.3-0.1,0.8-0.1,1.2,0.1s1.2,0.5,1.3,0.9c0.2,0.3-0.2,0.7-0.4,1c-0.2,0.3-0.3,0.8-0.6,1
		c-0.3,0.2-0.9,0.4-1.2,0.5c-0.4,0-0.7,0-1-0.3c-0.2-0.3-0.4-0.9-0.4-1.4c0-0.4,0-1,0.2-1.3c0.2-0.3,1-0.4,1.1-0.5
		c0.1-0.1-0.4,0-0.4-0.1"/>
	<path class="st1" d="M-227.2-7.6c0.3-0.1,1,0.1,1.4,0.2c0.4,0.1,1,0.2,1.2,0.5c0.2,0.3,0.3,0.9,0.2,1.3c-0.1,0.4-0.4,0.8-0.8,1
		c-0.4,0.2-1,0.4-1.4,0.5c-0.4,0-0.6,0-0.9-0.2s-0.6-0.7-0.7-1.1c-0.1-0.4,0-0.8,0.3-1.2c0.2-0.3,1-0.8,1.2-0.9c0.2-0.1,0,0.1,0,0.1
		 M-225.4-7.5c0.4,0.1,0.6,0.3,0.7,0.7c0.1,0.4,0.1,1.3,0,1.7c-0.1,0.4-0.4,0.7-0.7,0.9c-0.3,0.2-0.5,0.3-0.9,0.2
		c-0.4-0.1-1.3-0.3-1.6-0.5c-0.3-0.3-0.3-0.8-0.3-1.1c0-0.4,0.2-0.8,0.5-1.1c0.2-0.3,0.6-0.6,0.9-0.6c0.3-0.1,0.8,0.2,0.9,0.2
		c0.2,0,0.2-0.1,0.1-0.1"/>
</g>
<g transform="translate(425.7894218755175 62.49058267743578) rotate(0 19.048828125 18.607421875)">
	<path class="st9" d="M-336.2-48.7c0.8,0,1.8,0.6,2.4,1.1c0.6,0.6,1,1.5,1,2.4c0,0.8-0.4,1.9-0.9,2.6c-0.5,0.7-1.2,1.4-2,1.6
		c-0.8,0.2-1.9-0.2-2.6-0.5c-0.8-0.3-1.7-0.8-2-1.5c-0.3-0.7-0.3-1.9-0.1-2.7c0.2-0.8,0.9-1.4,1.5-1.9
		C-338.1-48.3-336.7-48.7-336.2-48.7c0.4-0.1,0.1,0.3,0.1,0.4 M-334.5-48.3c0.7,0.3,1.1,1.3,1.3,2c0.3,0.7,0.6,1.7,0.3,2.5
		c-0.2,0.8-1,1.6-1.7,2c-0.7,0.4-1.5,0.6-2.3,0.5c-0.9-0.1-2.3-0.7-2.8-1.3c-0.6-0.6-0.5-1.7-0.5-2.4c0-0.7-0.1-1.4,0.4-2
		c0.5-0.6,1.5-1.5,2.4-1.7c0.9-0.2,2.5,0.5,3,0.6c0.5,0.1-0.1,0-0.1,0.1"/>
	<path class="st11" d="M-335.5-48.5c0.8,0.1,1.7,0.6,2.2,1.2c0.5,0.7,0.8,2,0.7,2.8c-0.1,0.8-0.8,1.6-1.4,2.2
		c-0.6,0.6-1.5,1.1-2.3,1.2c-0.8,0.1-1.6-0.3-2.3-0.8c-0.7-0.5-1.6-1.2-1.8-2c-0.2-0.8,0-1.9,0.4-2.7c0.4-0.8,1-1.6,1.9-1.9
		c0.8-0.3,2.6-0.2,3.1-0.2c0.6,0,0.3,0.3,0.3,0.4 M-335.1-48.4c0.7,0.3,1.3,1.1,1.7,1.8s0.9,1.7,0.7,2.5c-0.2,0.8-1,1.5-1.7,2
		c-0.7,0.5-1.7,0.8-2.5,0.8c-0.8,0-1.9-0.3-2.5-0.9c-0.7-0.6-1.3-1.6-1.4-2.5c-0.1-0.9,0.3-1.9,0.7-2.6c0.5-0.7,1.4-1.3,2.2-1.5
		c0.8-0.2,2.3,0,2.7,0.1c0.4,0.1-0.2,0.5-0.2,0.6"/>
</g>
<g transform="translate(432.38654351254763 136.785723960857) rotate(0 19.048828125 18.607421875)">
	<path class="st9" d="M-341.4-107.6c0.8,0.1,1.8,0.7,2.3,1.2c0.5,0.6,0.9,1.4,0.9,2.2s-0.3,2-0.8,2.7c-0.5,0.7-1.3,1.2-2.2,1.3
		c-0.8,0.1-2.2-0.2-2.9-0.6c-0.7-0.4-1.1-1.1-1.4-1.8c-0.3-0.7-0.4-1.8-0.1-2.6c0.3-0.8,1.1-1.7,1.9-2.2c0.8-0.4,2.1-0.4,2.6-0.4
		c0.6,0,0.7,0.2,0.7,0.3 M-341.7-107.9c0.8,0,1.9,0.7,2.5,1.3c0.6,0.6,1,1.4,1.1,2.3c0.1,0.8-0.2,2.1-0.6,2.8
		c-0.5,0.6-1.4,0.8-2.2,1c-0.8,0.2-2,0.6-2.7,0.3c-0.8-0.3-1.6-1.5-1.9-2.3c-0.3-0.8,0-1.8,0.2-2.5c0.2-0.7,0.5-1.4,1.1-1.8
		c0.7-0.4,2.3-0.7,2.8-0.8c0.5-0.1,0,0.1,0,0.2"/>
	<path class="st11" d="M-343.6-107.2c0.7-0.4,1.6-0.5,2.4-0.4c0.8,0.1,2,0.5,2.6,1.1c0.5,0.6,0.7,1.7,0.6,2.6
		c-0.1,0.9-0.4,2-0.9,2.6c-0.6,0.6-1.7,0.8-2.5,0.9c-0.8,0.1-1.8,0-2.5-0.4c-0.7-0.4-1.4-1.3-1.7-2.1c-0.3-0.8-0.4-1.8,0.1-2.6
		c0.4-0.8,1.9-1.9,2.4-2.3c0.5-0.4,0.8-0.1,0.9,0 M-343.6-107.7c0.7-0.3,1.9,0,2.7,0.3c0.8,0.3,1.6,0.7,2.1,1.3s0.6,1.8,0.5,2.6
		c-0.1,0.8-0.5,1.7-1.1,2.3c-0.5,0.5-1.4,0.8-2.2,0.8c-0.8,0-2-0.1-2.7-0.6c-0.7-0.5-1.4-1.3-1.6-2.1c-0.2-0.8-0.1-1.8,0.3-2.5
		c0.3-0.8,1.4-1.8,1.8-2c0.4-0.2,0.5,0.4,0.6,0.5"/>
</g>
<g transform="translate(509.2447772544274 128.66233586038697) rotate(0 11.980747152828826 11.703125)">
	<path class="st9" d="M-403.6-101.3c0.5,0.1,1,0.6,1.2,1c0.2,0.4,0.2,1.1,0.1,1.7c-0.1,0.5-0.2,1.2-0.6,1.6c-0.4,0.3-1,0.3-1.5,0.3
		c-0.5,0-1.3,0.1-1.7-0.2c-0.4-0.3-0.6-1-0.7-1.5c-0.1-0.5,0-0.9,0.3-1.4c0.2-0.5,0.6-1.3,1.1-1.5c0.5-0.2,1.7,0.4,2.1,0.5
		c0.4,0.1,0.4,0.2,0.5,0.2 M-404.5-101.3c0.5,0,1.4,0.2,1.8,0.6c0.4,0.3,0.6,1,0.6,1.5c0.1,0.5,0.2,1.1-0.2,1.5
		c-0.3,0.4-1.3,0.7-1.9,0.9c-0.5,0.1-0.7,0-1.2-0.1c-0.5-0.1-1.4-0.2-1.7-0.7c-0.3-0.4-0.3-1.5-0.1-2c0.2-0.5,0.8-0.9,1.3-1.1
		s1.3-0.3,1.5-0.4c0.3-0.1,0.1-0.1,0.1-0.1"/>
	<path class="st11" d="M-405.1-101.3c0.5-0.2,1.2,0.2,1.6,0.4c0.4,0.2,0.8,0.5,1,0.9s0.4,1.2,0.3,1.7c0,0.5-0.2,0.9-0.6,1.2
		c-0.4,0.3-1.3,0.6-1.9,0.6c-0.5,0-1-0.3-1.4-0.7c-0.4-0.4-0.7-1-0.8-1.5c-0.1-0.5,0.1-1.2,0.4-1.6c0.3-0.4,1.1-0.7,1.3-0.9
		c0.2-0.1,0.1,0.1,0.1,0.1 M-404.9-101.3c0.5-0.1,1.6,0.1,2.1,0.4s0.7,0.7,0.8,1.2c0.1,0.5,0.1,1.2-0.1,1.7
		c-0.2,0.5-0.8,1.1-1.3,1.3c-0.5,0.2-1.4,0.1-1.9,0c-0.5-0.2-1-0.6-1.3-1.1c-0.3-0.4-0.5-1-0.4-1.6s0.4-1.3,0.8-1.6
		c0.4-0.3,1.1-0.1,1.3-0.1c0.3-0.1,0.4-0.2,0.4-0.2"/>
</g>
<g transform="translate(505.37535822659856 71.03147648538697) rotate(0 11.980747152828826 11.703125)">
	<path class="st9" d="M-400.7-55.2c0.5,0.1,1,0.4,1.3,0.8c0.3,0.4,0.5,1.3,0.4,1.8c0,0.5-0.3,1.1-0.7,1.4c-0.4,0.3-1.3,0.4-1.8,0.5
		c-0.5,0-0.9-0.1-1.3-0.4c-0.4-0.3-0.9-0.9-1-1.4c-0.1-0.5,0.2-1.3,0.4-1.8c0.2-0.5,0.3-1,0.9-1.1c0.6-0.1,2.1,0.2,2.5,0.3
		c0.5,0.1,0.3,0.5,0.3,0.6 M-400.3-55.1c0.4,0.2,0.8,0.6,1,1.1c0.2,0.5,0.2,1.4,0.1,1.9c-0.2,0.4-0.6,0.5-1,0.8
		c-0.5,0.3-1.2,0.9-1.7,0.8c-0.5-0.1-1.2-0.8-1.5-1.2c-0.3-0.4-0.2-1-0.2-1.4c0-0.4-0.1-0.9,0.1-1.2c0.3-0.4,1.1-0.8,1.6-1
		s1.4,0.3,1.7,0.3C-399.9-54.9-400.3-55.1-400.3-55.1"/>
	<path class="st11" d="M-400.6-55.1c0.5,0.1,1.3,0.4,1.5,0.9c0.3,0.4,0.1,1.2,0,1.7c-0.1,0.5-0.4,1.3-0.9,1.6
		c-0.4,0.3-1.2,0.2-1.8,0.2c-0.5-0.1-1.1-0.2-1.4-0.5c-0.4-0.3-0.7-1-0.8-1.5c-0.1-0.5,0.1-1.1,0.3-1.5c0.3-0.4,0.8-0.9,1.3-1.1
		c0.6-0.1,1.6,0.1,2,0.2c0.4,0.1,0.2,0.2,0.2,0.2 M-401.6-55.2c0.5,0,1.1,0,1.5,0.3c0.4,0.3,0.7,0.9,0.8,1.4
		c0.1,0.5,0.1,1.1-0.1,1.5c-0.2,0.4-0.6,0.7-1,0.8c-0.5,0.2-1.3,0.3-1.8,0.2c-0.5-0.1-1.1-0.6-1.4-1c-0.3-0.4-0.4-1-0.4-1.5
		s0.2-1.3,0.7-1.6c0.5-0.3,1.8-0.1,2.1-0.2c0.3-0.1-0.2-0.4-0.3-0.3"/>
</g>
<g transform="translate(578.2698894765986 91.19944523538697) rotate(0 11.980747152828826 11.703125)">
	<path class="st9" d="M-460.1-71.5c0.4-0.2,1-0.1,1.4,0.2c0.5,0.2,1.2,0.8,1.4,1.2c0.3,0.4,0.3,0.8,0.2,1.3
		c-0.1,0.5-0.6,1.3-1.1,1.7c-0.4,0.3-1,0.4-1.5,0.3c-0.5,0-1.1-0.1-1.5-0.5c-0.4-0.4-0.8-1.3-0.9-1.8c-0.1-0.5,0-0.8,0.4-1.2
		c0.4-0.4,1.6-1,2.1-1.2c0.5-0.2,0.8,0,0.8,0.1 M-459.7-71.6c0.5-0.1,1.1,0.1,1.6,0.3c0.5,0.3,1.2,0.8,1.3,1.2
		c0.1,0.5-0.3,1.1-0.5,1.5c-0.2,0.5-0.2,0.9-0.6,1.3c-0.5,0.3-1.5,0.8-2.1,0.7c-0.6-0.1-1.1-0.8-1.3-1.2c-0.3-0.4-0.3-0.8-0.2-1.3
		c0.1-0.5,0.2-1.1,0.5-1.5c0.3-0.4,1.3-0.8,1.5-0.9c0.2-0.1-0.1,0.1-0.2,0.2"/>
	<path class="st11" d="M-458.9-71.3c0.4,0.1,0.9,0.3,1.2,0.6c0.3,0.4,0.6,1.1,0.7,1.6s0,1-0.3,1.4c-0.3,0.4-1.2,0.8-1.7,0.9
		c-0.5,0.1-1-0.1-1.5-0.3c-0.4-0.3-0.9-0.8-1.1-1.3c-0.2-0.5-0.1-1.2,0-1.7c0.2-0.5,0.4-0.9,0.9-1.1c0.5-0.2,1.6-0.1,2.1-0.1
		c0.4,0,0.5-0.1,0.5-0.1 M-459.3-71.6c0.5-0.1,1,0,1.4,0.3c0.4,0.3,0.8,0.9,1,1.5c0.1,0.5,0,1.4-0.3,1.8c-0.3,0.5-1,0.8-1.5,1
		c-0.5,0.2-1.1,0.1-1.6,0c-0.5-0.2-1-0.5-1.3-1c-0.3-0.4-0.4-1.2-0.3-1.7c0-0.4,0.2-0.6,0.6-0.9C-460.9-70.9-459.7-71.3-459.3-71.6
		c0.2-0.1-0.4-0.2-0.5-0.1"/>
</g>
<g transform="translate(618.8284832265986 41.687726485386975) rotate(0 11.980747152828826 11.703125)">
	<path class="st9" d="M-491-32.1c0.5,0.1,1.1,0.8,1.4,1.3c0.3,0.5,0.5,1.1,0.4,1.6c-0.1,0.5-0.7,1-1.1,1.3c-0.4,0.3-0.8,0.7-1.2,0.7
		c-0.5,0-1.3-0.2-1.7-0.5c-0.4-0.4-0.5-1-0.7-1.6c-0.1-0.5-0.4-1.2-0.1-1.6c0.2-0.4,1-0.8,1.6-1c0.6-0.1,1.4,0.2,1.8,0.2
		c0.3,0,0.2,0,0.2,0 M-492.4-32c0.5-0.1,1.2,0.3,1.7,0.5c0.5,0.2,0.9,0.2,1.1,0.7c0.2,0.5,0.2,1.6,0,2.1c-0.2,0.5-0.6,0.6-1,0.8
		c-0.4,0.2-0.7,0.5-1.2,0.5c-0.5,0-1.5-0.1-1.8-0.4s-0.4-1.1-0.4-1.6c0-0.5,0.2-1.1,0.5-1.5c0.3-0.4,1.1-0.9,1.3-1.1
		c0.2-0.2,0.1-0.3,0.1-0.3"/>
	<path class="st11" d="M-490.5-32c0.5,0.2,0.8,0.8,1,1.3c0.2,0.5,0.3,1.4,0.2,1.9c-0.2,0.5-0.7,0.8-1.1,1c-0.4,0.3-1,0.6-1.5,0.6
		c-0.5,0-1.2-0.4-1.6-0.7c-0.4-0.4-0.7-0.9-0.7-1.5c0-0.5,0.1-1.3,0.4-1.7c0.3-0.4,1-0.8,1.6-0.9c0.6,0,1.8,0.5,2.2,0.6
		c0.4,0.1,0.1,0.2,0.1,0.2 M-492.7-31.9c0.4-0.2,1-0.2,1.5,0c0.5,0.2,1.1,0.6,1.4,0.9c0.3,0.4,0.6,0.9,0.5,1.3
		c-0.1,0.5-0.5,1.2-1,1.5c-0.4,0.4-1.1,0.6-1.7,0.6c-0.5,0-1.1-0.1-1.6-0.5c-0.4-0.3-0.9-1.1-1-1.6c0-0.5,0.5-0.7,0.8-1.2
		c0.3-0.4,0.9-1.3,1-1.5c0.1-0.2-0.3,0.2-0.2,0.3"/>
</g>
<g transform="translate(612.9612957265986 131.82053898538697) rotate(0 11.980747152828826 11.703125)">
	<path class="st9" d="M-487.7-103.8c0.5-0.1,1.4,0.1,1.9,0.4c0.5,0.2,0.9,0.5,1.1,0.9c0.2,0.5,0.1,1.4-0.1,1.9
		c-0.2,0.5-0.5,0.9-0.9,1.1c-0.4,0.3-1.1,0.6-1.6,0.5c-0.5-0.1-1.3-0.8-1.6-1.2c-0.4-0.4-0.6-0.7-0.6-1.2c0-0.5,0.2-1.2,0.6-1.7
		c0.4-0.4,1.6-0.8,2-0.9c0.4-0.1,0.3,0.2,0.2,0.2 M-487.1-104c0.5-0.1,1.5,0.2,1.9,0.5c0.4,0.3,0.3,0.8,0.4,1.3
		c0.1,0.5,0.5,1.1,0.2,1.6c-0.2,0.5-1.2,1.4-1.7,1.6c-0.5,0.2-1.1-0.1-1.6-0.3c-0.4-0.2-0.8-0.4-1-0.8c-0.2-0.4-0.5-1.1-0.4-1.6
		c0.1-0.5,0.5-1.2,0.9-1.6c0.4-0.3,1.2-0.4,1.4-0.5c0.2-0.1-0.4-0.1-0.3-0.1"/>
	<path class="st11" d="M-488.1-103.6c0.4-0.2,1.2-0.1,1.8,0c0.6,0.1,1.3,0.4,1.6,0.8c0.3,0.4,0.2,1.2,0.1,1.7
		c-0.1,0.5-0.2,1.1-0.6,1.4c-0.4,0.3-1,0.5-1.5,0.5c-0.5,0-1.1-0.2-1.6-0.5c-0.4-0.3-0.9-0.7-1-1.2c-0.1-0.5-0.1-1,0.2-1.5
		c0.4-0.5,1.6-1.3,2-1.6c0.4-0.2,0.5,0.2,0.4,0.2 M-487-104.1c0.5,0,1.2,0.2,1.6,0.6c0.4,0.4,0.7,1.1,0.8,1.6c0,0.5-0.2,1.1-0.5,1.5
		c-0.3,0.4-0.7,0.8-1.2,1c-0.5,0.2-1.2,0.2-1.7,0c-0.5-0.2-0.9-0.7-1.2-1.1c-0.3-0.4-0.6-0.6-0.5-1.1c0.1-0.5,0.8-1.3,1.2-1.7
		c0.4-0.4,0.9-0.8,1.2-0.8c0.2-0.1,0.2,0.3,0.3,0.4"/>
</g>
<g transform="translate(683.6515500346438 45.36006775215378) rotate(0 11.980747152828826 11.703125)">
	<path class="st9" d="M-542.9-34.9c0.5,0.1,1.3,0.5,1.6,0.8c0.3,0.4,0.3,0.9,0.3,1.4c0,0.5,0,1.3-0.3,1.7c-0.3,0.4-1.1,0.8-1.6,0.8
		c-0.5,0.1-1-0.2-1.5-0.5c-0.5-0.3-1.3-0.8-1.5-1.3c-0.2-0.5,0.1-1.1,0.4-1.5c0.2-0.4,0.5-0.8,1-1.1c0.5-0.2,1.5-0.3,1.9-0.4
		c0.4-0.1,0.5,0,0.4,0 M-543-34.7c0.5,0,1.1-0.1,1.4,0.3c0.3,0.4,0.5,1.5,0.5,2c0,0.5-0.3,0.7-0.5,1.1c-0.3,0.3-0.5,0.8-1,0.9
		c-0.5,0.2-1.5,0.3-2,0.1c-0.5-0.2-0.7-0.8-0.8-1.3c-0.1-0.5-0.2-1.1,0-1.6c0.2-0.5,0.5-1.1,1-1.5c0.5-0.3,1.5-0.6,1.8-0.6
		C-542.5-35.3-542.9-34.8-543-34.7"/>
	<path class="st11" d="M-542.5-34.9c0.5,0.2,1.1,0.8,1.4,1.3s0.3,0.8,0.2,1.3c-0.1,0.5-0.3,1.2-0.7,1.6c-0.4,0.4-1.1,0.6-1.6,0.6
		c-0.6,0-1.2-0.2-1.7-0.5c-0.4-0.3-0.8-1-0.9-1.5c-0.1-0.5,0.2-1.2,0.5-1.6s0.9-0.8,1.4-1S-542.8-34.8-542.5-34.9
		c0.3,0.1,0.3,0.2,0.3,0.2 M-542.6-34.8c0.5,0.1,1,0.6,1.3,1c0.3,0.4,0.5,0.9,0.4,1.4s-0.6,1.1-1,1.5c-0.5,0.3-1.2,0.5-1.7,0.5
		c-0.5,0-1.1-0.2-1.5-0.5c-0.4-0.4-0.9-1.2-0.9-1.6c0-0.5,0.5-0.7,0.9-1.2c0.3-0.4,0.6-1.2,1.1-1.4C-543.7-35.3-543-34.9-542.6-34.8
		c0.3,0.1,0.3,0.2,0.3,0.2"/>
</g>
<g transform="translate(687.1839519765988 133.54319523538697) rotate(0 11.980747152828826 11.703125)">
	<path class="st9" d="M-546.5-105c0.5-0.2,1.2-0.3,1.7,0c0.4,0.2,0.8,1,1,1.5c0.2,0.5,0.3,1,0.2,1.5c-0.1,0.5-0.6,1.2-1,1.5
		c-0.5,0.2-1.3,0-1.8-0.1c-0.5-0.1-1.1-0.1-1.5-0.4c-0.3-0.3-0.5-1.1-0.5-1.6c0-0.5,0.3-1.2,0.7-1.6c0.4-0.4,1.3-0.6,1.6-0.7
		c0.3-0.2,0.3-0.2,0.3-0.2 M-546.4-105.3c0.4-0.2,0.7-0.1,1.2,0.1c0.5,0.2,1.4,0.7,1.6,1.2c0.2,0.6-0.2,1.6-0.4,2.1
		c-0.2,0.5-0.5,0.7-0.9,1c-0.4,0.3-0.8,0.6-1.3,0.6c-0.5,0-1.2-0.3-1.6-0.7c-0.4-0.4-0.5-1.1-0.6-1.6c0-0.5,0.1-1,0.3-1.4
		s0.8-0.9,1.1-1.1C-546.7-105.4-546.5-105.3-546.4-105.3"/>
	<path class="st11" d="M-545.2-104.9c0.5,0.2,1.2,0.5,1.4,1c0.2,0.4,0,1.2-0.1,1.7c-0.1,0.5-0.4,1-0.7,1.3c-0.4,0.3-1.1,0.4-1.6,0.4
		c-0.5-0.1-1.1-0.4-1.5-0.7c-0.4-0.3-0.8-0.8-0.8-1.3s0.1-1,0.4-1.5c0.3-0.5,0.9-1.1,1.5-1.3c0.5-0.1,1.4,0.3,1.8,0.4
		c0.3,0.1,0.3,0,0.3,0.1 M-546.4-105.3c0.5-0.1,1.2,0.2,1.6,0.5c0.4,0.3,0.7,0.7,0.8,1.1c0.1,0.4,0.2,1.1,0.1,1.5s-0.6,1-1.1,1.3
		c-0.4,0.2-1.1,0.2-1.6,0.2c-0.5,0-1.3,0-1.6-0.3c-0.3-0.4-0.1-1.2-0.1-1.8c0-0.6-0.1-1.4,0.2-1.8c0.3-0.4,1.4-0.4,1.7-0.4
		c0.3,0,0.2,0.1,0.2,0.1"/>
</g>
<g transform="translate(729.77298275314 89.69163402508616) rotate(0 11.980747152828826 11.703125)">
	<path class="st9" d="M-580.8-70c0.4-0.2,0.9-0.4,1.4-0.2c0.5,0.2,1.3,0.7,1.6,1.2c0.3,0.5,0.3,1.1,0.2,1.6c-0.1,0.5-0.2,1-0.6,1.3
		c-0.4,0.3-1.4,0.6-1.9,0.6c-0.5,0-0.9-0.1-1.2-0.4c-0.4-0.3-0.9-0.7-1-1.2c-0.1-0.5-0.1-1.3,0.2-1.8c0.3-0.5,1.4-1.1,1.7-1.3
		c0.3-0.2,0,0,0,0 M-580.1-70.5c0.5,0,1.1,0.7,1.5,1.1c0.4,0.3,0.6,0.5,0.8,1c0.2,0.4,0.4,1.2,0.1,1.7c-0.3,0.5-1.1,1.1-1.7,1.3
		c-0.5,0.2-1,0.1-1.4-0.1c-0.4-0.2-1-0.5-1.2-1s-0.5-1.2-0.3-1.8c0.1-0.6,0.6-1.4,1-1.7c0.4-0.3,1.2,0,1.4,0c0.2,0-0.1-0.2-0.1-0.2"
		/>
	<path class="st11" d="M-580.8-70c0.4-0.2,1-0.4,1.5-0.3c0.5,0.2,1.1,0.8,1.4,1.2c0.3,0.5,0.3,1.1,0.2,1.6s-0.5,1.1-0.9,1.5
		c-0.4,0.3-1.1,0.5-1.6,0.5c-0.5,0-1-0.2-1.4-0.5c-0.4-0.3-0.6-0.8-0.8-1.3c-0.1-0.5-0.4-1.3,0-1.8c0.4-0.5,1.7-1,2.1-1.2
		c0.4-0.2,0.5,0.1,0.6,0.1 M-580-70.3c0.5,0,1.3,0.1,1.7,0.4c0.4,0.3,0.6,1,0.6,1.6c0,0.5-0.2,1.2-0.5,1.6c-0.3,0.4-0.8,0.9-1.3,1
		c-0.5,0.1-1.3-0.1-1.7-0.3c-0.4-0.2-0.5-0.3-0.7-0.7c-0.2-0.5-0.5-1.5-0.4-2s0.3-0.8,0.7-1.1c0.4-0.2,1.6-0.2,2-0.3
		c0.3-0.1,0.1-0.3,0.1-0.3"/>
</g>
<g>
	<g transform="translate(466.73578634077467 81.43304359114381) rotate(0 20.99868356133777 0.1962285399673931)">
		<path class="st11" d="M-372.9-63.9c1.5,0,6.9,0,8.4,0.1 M-373.1-63.5c1.4,0,6.9,0,8.4-0.1"/>
	</g>
</g>
<g>
	<g transform="translate(471.3498189496763 153.15535113565772) rotate(0 17.141342214768997 -5.122792713842358)">
		<path class="st11" d="M-377-120.8c1.2-0.3,6.1-1.4,7.3-1.7 M-376.6-121c1.1-0.3,5.6-1.6,6.8-1.9"/>
	</g>
</g>
<g>
	<g transform="translate(532.0126315488101 90.6774163295994) rotate(0 20.59293836590041 6.0454730940209345)">
		<path class="st11" d="M-425.1-71.1c1.4,0.5,7.3,2.4,8.7,2.8 M-425.4-71.4c1.4,0.4,7.4,2.3,8.9,2.8"/>
	</g>
</g>
<g>
	<g transform="translate(533.8346984749478 133.8303088479422) rotate(0 19.714490739939492 -12.942353018543741)">
		<path class="st11" d="M-426.6-105.3c1.4-0.9,6.9-4.6,8.2-5.5 M-426.2-105.5c1.4-0.9,6.5-4.3,7.7-5.1"/>
	</g>
</g>
<g>
	<g transform="translate(596.4264086993235 93.82623320579933) rotate(0 12.768061518404238 -12.727639021724457)">
		<path class="st11" d="M-476.2-73.4c0.9-0.9,4.3-4.7,5.2-5.6 M-476.5-73.5c0.9-0.9,4.3-4.3,5.2-5.3"/>
	</g>
</g>
<g>
	<g transform="translate(645.6098358775171 53.598771449437436) rotate(0 16.800351123502537 -0.035101853165514285)">
		<path class="st11" d="M-515.3-41.6c1.1,0,5.5,0.3,6.6,0.4 M-515.4-41.9c1.1-0.1,5.4,0.1,6.5,0.2"/>
	</g>
</g>
<g>
	<g transform="translate(595.4408128207506 110.36718415035784) rotate(0 9.449604786056057 9.520260296016914)">
		<path class="st11" d="M-475.6-86.9c0.6,0.6,3.3,3.4,4,4.1 M-475.2-86.4c0.6,0.7,2.8,2.7,3.4,3.3"/>
	</g>
</g>
<g>
	<g transform="translate(639.2819028116569 148.87029508246042) rotate(0 24.00760093760948 -0.07582244602699006)">
		<path class="st11" d="M-510.6-117.4c1.6,0,8.3-0.1,10-0.2 M-510.2-117.5c1.6,0,7.9,0.3,9.5,0.3"/>
	</g>
</g>
<g>
	<g transform="translate(715.0824547352001 142.90999228936926) rotate(0 8.443674718251373 -13.363977622911477)">
		<path class="st11" d="M-570.7-112.5c0.6-0.9,3.1-4.5,3.6-5.3 M-571-112.7c0.6-0.9,3-4.6,3.7-5.5"/>
	</g>
</g>
<g>
	<g transform="translate(712.46165335826 63.92069547081769) rotate(0 14.284992989806483 9.158202548776742)">
		<path class="st11" d="M-568.6-49.8c1,0.6,4.9,3.2,5.8,3.8 M-568.8-50.1c1,0.7,4.9,3.6,5.9,4.3"/>
	</g>
</g>
<g>
	<g transform="translate(697.448753719623 44.22448003937791) rotate(0 2.859315079690532 -10.712602434273037)">
		<path class="st11" d="M-556.8-34c0.2-0.7,0.9-3.6,1.1-4.3 M-557.1-34.1c0.2-0.8,1.6-3.8,1.9-4.5"/>
	</g>
</g>
<g>
	<g transform="translate(629.8738534652116 41.509727747318834) rotate(0 -3.4324072946275237 -9.92293104663672)">
		<path class="st11" d="M-502.8-32.1c-0.3-0.7-1.3-3.6-1.6-4.2 M-503-31.6c-0.3-0.7-1.2-3.8-1.4-4.5"/>
	</g>
</g>
<g>
	<g transform="translate(620.5486680504064 180.37536607999664) rotate(0 2.5206119100288333 -11.988337270012067)">
		<path class="st11" d="M-495.7-142.3c0.1-0.8,0.7-4,0.9-4.8 M-495.3-142.4c0.2-0.9,0.8-4.3,0.9-5.1"/>
	</g>
</g>
<g>
	<g transform="translate(709.5944291532949 180.1705274639769) rotate(0 -3.602311753157437 -10.770217253845658)">
		<path class="st11" d="M-566.2-142.5c-0.3-0.7-1.4-3.4-1.7-4.1 M-566.4-142c-0.3-0.7-1.4-4.1-1.6-4.9"/>
	</g>
</g>
<g transform="translate(607.1663247614069 181.56045430416248) rotate(0 9.16908766261156 8.956618287880701)">
	<path class="st9" d="M-482.1-143.2c0.4,0.1,0.6,0.7,0.8,1c0.1,0.3,0.2,0.6,0.1,1c-0.1,0.4-0.3,1-0.6,1.2c-0.3,0.3-0.9,0.3-1.3,0.3
		c-0.4,0-0.9,0-1.2-0.3c-0.3-0.3-0.6-1.1-0.6-1.4c-0.1-0.4,0-0.6,0.2-0.9c0.2-0.3,0.6-0.9,1-1.1
		C-483.3-143.6-482.3-143.4-482.1-143.2c0.3,0-0.1,0.2-0.1,0.2 M-482.6-143.2c0.3,0.1,0.5,0.2,0.8,0.5c0.3,0.3,0.9,0.7,0.9,1.1
		c0,0.4-0.4,0.9-0.7,1.2c-0.3,0.3-0.7,0.6-1.1,0.7c-0.4,0-0.9-0.3-1.2-0.5c-0.4-0.2-0.9-0.6-1-0.9c-0.1-0.3,0.3-0.6,0.5-0.9
		c0.2-0.4,0.2-1.1,0.5-1.4c0.3-0.2,1.1,0,1.4,0c0.3,0,0.3,0.1,0.3,0.2"/>
	<path class="st11" d="M-482.6-143.6c0.4,0,0.7,0.4,0.9,0.7c0.2,0.3,0.5,0.6,0.5,1c0,0.4-0.1,1.2-0.3,1.5c-0.2,0.3-0.7,0.5-1.1,0.6
		c-0.4,0.1-1,0.1-1.4-0.1c-0.4-0.2-0.7-0.6-0.8-1c-0.1-0.4-0.1-1,0.1-1.4c0.1-0.4,0.3-0.7,0.6-0.9c0.3-0.2,1.1-0.2,1.4-0.2
		c0.3,0,0.2,0.1,0.2,0.1 M-482.5-143.5c0.3,0.1,1,0.8,1.2,1.2c0.3,0.4,0.4,0.9,0.3,1.3c-0.1,0.4-0.7,0.8-1.1,1.1
		c-0.4,0.2-0.8,0.4-1.2,0.3c-0.4-0.1-0.9-0.5-1.2-0.8c-0.3-0.3-0.5-0.4-0.5-0.8c0-0.3,0.3-0.8,0.4-1.2c0.2-0.4,0.2-0.9,0.6-1
		c0.4-0.1,1.5,0.2,1.8,0.3s-0.2,0.1-0.2,0"/>
</g>
<g transform="translate(702.250113574836 179.42272742377395) rotate(0 9.16908766261156 8.956618287880701)">
	<path class="st9" d="M-558.6-141.7c0.4-0.1,1.1,0.1,1.3,0.4c0.3,0.3,0.3,0.8,0.3,1.2s0.1,0.8-0.1,1.1c-0.2,0.3-0.7,0.6-1.1,0.8
		c-0.4,0.1-0.7,0.1-1.1-0.1c-0.4-0.2-1.1-0.6-1.3-0.9c-0.2-0.4,0.1-0.9,0.1-1.2c0.1-0.3,0-0.5,0.4-0.7s1.3-0.5,1.6-0.6
		c0.4,0,0.5,0.2,0.5,0.3 M-557.9-141.9c0.4,0.1,0.6,0.9,0.8,1.3c0.1,0.4,0.2,0.6,0.1,1c-0.1,0.4-0.3,0.9-0.6,1.1
		c-0.3,0.3-0.7,0.5-1.1,0.4c-0.4,0-1.1-0.4-1.4-0.6c-0.3-0.2-0.5-0.3-0.5-0.6c0-0.4,0.4-1.2,0.5-1.6c0.2-0.4,0.2-0.6,0.5-0.7
		c0.3-0.1,1.2,0.3,1.4,0.3c0.3,0,0.1-0.2,0.1-0.2"/>
	<path class="st11" d="M-558.6-141.7c0.4,0,1,0.3,1.3,0.6c0.3,0.3,0.3,0.8,0.3,1.2s0.1,0.8-0.1,1.1c-0.2,0.3-0.8,0.5-1.2,0.6
		c-0.4,0.1-0.9,0-1.2-0.1c-0.4-0.2-0.7-0.4-0.9-0.8c-0.2-0.4-0.3-1-0.2-1.4c0.1-0.4,0.5-0.8,0.9-1c0.4-0.2,1.3-0.1,1.6-0.2
		c0.3,0,0.3,0,0.3,0.1 M-558.4-141.6c0.4,0.2,1.1,0.6,1.4,0.9c0.3,0.3,0.4,0.5,0.4,0.8c0,0.3-0.3,0.9-0.6,1.2
		c-0.3,0.3-0.8,0.5-1.3,0.5c-0.5,0-1.2,0-1.6-0.2c-0.3-0.2-0.3-0.4-0.4-0.9c0-0.4,0-1.3,0.1-1.7c0.1-0.3,0.3-0.3,0.7-0.4
		c0.4-0.1,1.2-0.3,1.5-0.3c0.2,0,0,0.3,0,0.3"/>
</g>
<g transform="translate(612.1891845599803 10) rotate(0 9.16908766261156 8.956618287880701)">
	<path class="st9" d="M-486.8-6.7c0.3,0,0.8,0,1.1,0.3s0.5,0.9,0.6,1.3c0,0.4-0.2,0.8-0.4,1.1c-0.2,0.3-0.7,0.8-1.1,0.9
		c-0.4,0.1-0.9-0.3-1.3-0.5c-0.4-0.2-0.8-0.2-1-0.6c-0.2-0.4-0.2-1.1-0.1-1.6c0.2-0.4,0.7-0.8,1.1-0.9c0.4-0.2,1.1,0,1.4,0
		c0.3,0,0.5,0.1,0.5,0.1 M-487.2-6.9c0.4-0.1,1.4,0.1,1.7,0.4c0.3,0.3,0.3,0.8,0.3,1.2c0,0.4,0,1-0.2,1.3c-0.2,0.3-0.6,0.4-1,0.5
		c-0.4,0.1-1.2,0.1-1.5,0.1s-0.3-0.2-0.5-0.5c-0.2-0.4-0.6-1.3-0.5-1.7c0-0.4,0.4-0.7,0.8-0.9c0.4-0.2,1.3-0.2,1.5-0.2
		c0.2,0-0.2,0.1-0.3,0.1"/>
	<path class="st11" d="M-486.5-6.8c0.3,0.1,0.8,0.3,1,0.6c0.2,0.4,0.4,1.1,0.3,1.5c-0.1,0.4-0.3,0.7-0.6,1c-0.3,0.2-0.9,0.5-1.3,0.5
		c-0.4,0-0.9-0.2-1.2-0.4c-0.3-0.3-0.5-0.8-0.6-1.2c-0.1-0.4-0.1-0.8,0.1-1.2c0.2-0.3,0.5-0.7,0.9-0.8s1.3,0.1,1.6,0.1
		c0.3,0,0.2,0,0.2,0.1 M-487-6.8c0.4,0,1.1,0.2,1.4,0.5c0.3,0.3,0.3,0.7,0.3,1.1c0,0.4,0.1,0.9-0.1,1.1s-0.6,0.3-1,0.5
		c-0.4,0.1-0.8,0.4-1.2,0.4c-0.3-0.1-0.6-0.4-0.8-0.8c-0.3-0.4-0.8-1-0.7-1.4c0.1-0.4,0.7-0.7,1.1-0.9C-487.7-6.5-487.3-6.6-487-6.8
		c0.2-0.1,0.3-0.2,0.2-0.2"/>
</g>
<g transform="translate(694.1820314370691 10.902673543601054) rotate(0 9.16908766261156 8.956618287880701)">
	<path class="st9" d="M-551.2-7.4c0.3,0.1,0.4,0.6,0.6,1c0.1,0.4,0.3,0.8,0.2,1.2c-0.1,0.4-0.5,0.8-0.8,1c-0.3,0.2-0.7,0.3-1.1,0.2
		c-0.4-0.1-1.2-0.4-1.5-0.7c-0.3-0.3-0.2-0.8-0.2-1.2c0-0.3-0.1-0.6,0.1-0.9c0.2-0.3,0.7-0.8,1.2-0.9s1.4,0.4,1.8,0.5
		s0.2,0.2,0.2,0.2 M-552.2-7.4c0.3,0,0.8,0,1.1,0.2s0.6,0.8,0.6,1.2c0.1,0.4,0.1,0.9-0.2,1.2c-0.2,0.3-0.8,0.4-1.2,0.6
		c-0.4,0.2-0.9,0.5-1.1,0.4s-0.4-0.8-0.6-1.2c-0.2-0.4-0.6-0.8-0.6-1.1c0-0.3,0.5-0.5,0.8-0.8c0.4-0.2,1.1-0.5,1.4-0.7
		c0.2-0.1,0.1-0.2,0-0.2"/>
	<path class="st11" d="M-551.5-7.5c0.4,0.1,0.6,0.5,0.8,0.9c0.2,0.3,0.5,0.8,0.4,1.2c-0.1,0.4-0.5,0.7-0.8,0.9
		c-0.3,0.2-0.8,0.4-1.2,0.4c-0.4,0-0.9-0.1-1.2-0.4c-0.3-0.3-0.7-0.8-0.7-1.2c-0.1-0.4,0.1-1,0.4-1.3c0.2-0.3,0.6-0.6,1-0.7
		c0.5-0.1,1.4,0.1,1.7,0.2c0.3,0.2,0.2,0.6,0.2,0.7 M-552.8-7.3c0.4-0.2,1-0.5,1.4-0.4s0.8,0.5,1,0.8c0.2,0.3,0.3,0.8,0.1,1.2
		c-0.1,0.4-0.7,0.9-1,1.2c-0.3,0.3-0.5,0.7-0.9,0.6c-0.3,0-0.9-0.6-1.2-0.8c-0.3-0.2-0.8-0.3-0.9-0.6c-0.1-0.3,0.2-1.1,0.4-1.4
		S-552.9-7-552.8-7.3c0.2-0.1-0.2-0.5-0.2-0.4"/>
</g>
<g transform="translate(471.7619494671576 233.96940024901966) rotate(0 118 12.5)">
	<text transform="matrix(1 0 0 1 -385.4123 -179.6552)" class="st2 st3 st4">undecorated graph </text>
</g>
<g transform="translate(314.34393054813006 381.55687767393255) rotate(0 11.980747152828826 11.703125)">
	<path class="st12" d="M-248.7-305.2c0.4,0.2,1,0.6,1.3,1.1c0.3,0.4,0.5,1,0.4,1.5c-0.1,0.5-0.4,0.9-0.8,1.3
		c-0.4,0.4-1.2,0.8-1.7,0.8c-0.6,0-1.3-0.6-1.7-0.9s-0.4-0.7-0.5-1.2c-0.1-0.5,0-1.3,0.2-1.7c0.2-0.4,0.5-0.8,1-1
		c0.5-0.2,1.8,0,2.2,0s0.1,0.1,0.1,0.2 M-249.6-305.5c0.4-0.1,1.2-0.1,1.6,0.2c0.4,0.3,0.7,1,0.8,1.6c0.1,0.6,0.3,1.2,0.1,1.7
		c-0.2,0.5-0.8,1-1.4,1.2c-0.5,0.2-1.3,0-1.8-0.2c-0.5-0.2-0.8-0.4-1.1-0.8c-0.3-0.4-0.7-1.1-0.7-1.7c0.1-0.5,0.6-1.1,1-1.5
		c0.4-0.4,1.2-0.8,1.5-0.9c0.3-0.1,0.2,0.2,0.2,0.3"/>
	<path class="st13" d="M-249.2-305.5c0.5,0,1,0,1.4,0.3c0.4,0.4,0.7,1.2,0.7,1.8c0.1,0.5-0.2,1-0.4,1.4c-0.2,0.4-0.6,0.8-1.1,1
		s-1.1,0.1-1.6-0.1c-0.5-0.2-1.3-0.5-1.5-0.9c-0.2-0.4,0-1.2,0.1-1.7c0.1-0.5,0.1-1.1,0.5-1.4c0.4-0.3,1.5-0.5,1.8-0.6
		c0.4-0.1,0.4,0,0.4,0.1 M-250.6-305.4c0.4-0.2,1.1-0.1,1.6,0c0.5,0.1,1.1,0.4,1.5,0.8c0.4,0.4,0.9,1.1,0.9,1.6c0,0.5-0.7,0.8-1,1.2
		c-0.4,0.4-0.7,1.1-1.2,1.2s-1.1-0.4-1.6-0.7c-0.5-0.4-1.3-1-1.5-1.5c-0.2-0.5,0-1.1,0.2-1.5c0.2-0.4,1-0.9,1.2-1
		c0.2-0.1,0.2,0.2,0.2,0.2"/>
</g>
<g transform="translate(10 354.3558263262823) rotate(0 19.048828125 18.607421875)">
	<path class="st14" d="M-3.9-283.6c0.8,0.3,1.5,1.2,1.9,2c0.3,0.8,0.3,1.9,0.1,2.6c-0.3,0.8-1,1.5-1.7,2c-0.7,0.4-1.5,0.6-2.3,0.6
		s-2.2-0.2-2.8-0.8s-0.8-1.6-0.9-2.5c0-0.9,0.1-2.1,0.6-2.8s1.4-1.1,2.3-1.2c0.9-0.1,2.5,0.3,3.2,0.6c0.6,0.2,0.5,0.6,0.5,0.7
		 M-3.9-283.7c0.7,0.3,1.1,1.1,1.4,1.9c0.3,0.8,0.5,2.2,0.2,3s-0.8,1.6-1.5,2c-0.7,0.4-1.6,0.5-2.5,0.4c-0.8-0.1-2-0.4-2.5-1.1
		s-0.7-1.9-0.7-2.8c0-0.9,0.3-1.7,0.8-2.4c0.5-0.6,1.4-1.3,2.1-1.5c0.7-0.2,1.8,0.5,2.3,0.6c0.4,0.1,0.2,0,0.2,0.1"/>
	<path class="st13" d="M-5.6-284c0.8-0.1,1.6,0.4,2.2,0.9c0.6,0.5,1.5,1.4,1.6,2.2c0.1,0.8-0.3,2.1-0.7,2.8s-1.3,1.4-2.1,1.7
		c-0.8,0.2-1.9-0.1-2.6-0.3c-0.7-0.3-1.5-0.6-1.9-1.3c-0.4-0.7-0.6-2.1-0.5-3c0.1-0.8,0.7-1.7,1.4-2.1c0.7-0.4,2.3-0.5,2.8-0.6
		c0.5-0.1,0.4,0,0.4,0 M-5.6-284.2c0.8,0,2,0.5,2.6,1.1c0.6,0.6,1,1.9,1.1,2.7c0.1,0.8-0.1,1.5-0.6,2.2c-0.5,0.7-1.6,1.6-2.4,1.9
		c-0.8,0.3-1.4,0.3-2.2-0.1c-0.7-0.4-1.8-1.5-2.3-2.3c-0.5-0.8-0.7-1.7-0.5-2.5c0.2-0.8,0.9-1.7,1.6-2.1c0.7-0.4,2.2-0.5,2.7-0.6
		c0.5-0.1,0.2,0.1,0.1,0.1"/>
</g>
<g transform="translate(16.597121637030114 428.6509676097034) rotate(0 19.048828125 18.607421875)">
	<path class="st14" d="M-10.2-342.8c0.8,0.1,1.8,0.7,2.4,1.3c0.5,0.6,0.9,1.5,0.8,2.4c-0.1,0.8-0.6,2.1-1.2,2.7
		c-0.6,0.6-1.7,0.7-2.5,0.8c-0.8,0.1-1.6,0.1-2.2-0.4c-0.7-0.4-1.4-1.4-1.7-2.2c-0.3-0.8-0.5-1.8-0.1-2.5s1.1-1.7,2.1-2
		c1-0.3,2.9,0,3.7,0.1c0.8,0.1,1.1,0.6,1,0.7 M-11.8-343.3c0.8-0.2,1.8,0.2,2.6,0.6c0.8,0.5,1.7,1.3,2.1,2.1c0.3,0.8,0.2,2-0.1,2.7
		c-0.3,0.8-1.2,1.4-1.9,1.8c-0.7,0.4-1.6,0.8-2.5,0.7c-0.9-0.1-2.1-0.7-2.7-1.4c-0.6-0.7-0.8-1.7-0.8-2.6c0-0.9,0.3-2.2,0.8-2.8
		c0.6-0.6,2.1-0.9,2.5-1c0.4-0.1,0,0,0,0.1"/>
	<path class="st13" d="M-12.2-343.1c0.7-0.3,1.9,0.1,2.6,0.4c0.7,0.3,1.5,0.8,1.9,1.5c0.4,0.7,0.7,1.8,0.6,2.5
		c-0.1,0.8-0.7,1.7-1.4,2.2c-0.7,0.5-2,1-2.8,0.9c-0.8,0-1.5-0.5-2.1-1.1s-1.5-1.5-1.6-2.3c-0.2-0.8,0.1-1.9,0.7-2.6
		c0.6-0.7,2.4-1.4,2.9-1.7c0.6-0.2,0.5,0.2,0.5,0.3 M-12.1-342.9c0.8-0.2,1.9-0.1,2.7,0.3c0.8,0.4,1.9,1.2,2.2,1.9
		c0.3,0.7,0,1.5-0.2,2.3c-0.3,0.8-0.7,2.1-1.3,2.6c-0.6,0.5-1.7,0.4-2.6,0.2c-0.9-0.2-2.2-0.8-2.9-1.4c-0.6-0.6-0.9-1.5-0.9-2.2
		c0-0.8,0.3-1.7,0.9-2.3c0.5-0.6,2-1,2.4-1.3c0.4-0.3,0.1-0.3,0.1-0.3"/>
</g>
<g transform="translate(93.45535537890987 420.52757950923336) rotate(0 11.980747152828826 11.703125)">
	<path class="st15" d="M-74.1-336.5c0.4-0.1,1.1,0,1.5,0.1c0.4,0.2,0.8,0.6,1.1,1c0.3,0.4,0.6,1,0.4,1.5c-0.1,0.5-0.9,1.4-1.3,1.7
		c-0.5,0.3-0.9,0.4-1.4,0.3c-0.5-0.1-1.3-0.6-1.6-0.9c-0.4-0.4-0.6-0.7-0.6-1.2c-0.1-0.5-0.1-1.2,0.3-1.7c0.4-0.4,1.6-0.7,2-0.9
		c0.4-0.2,0.5-0.1,0.5-0.1 M-75-336.5c0.4-0.2,1.3,0,1.8,0.2c0.6,0.2,1.2,0.5,1.5,0.8c0.4,0.4,0.7,0.9,0.6,1.4
		c0,0.5-0.5,1.3-0.8,1.6c-0.3,0.3-0.7,0.3-1.2,0.3c-0.5,0-1.2,0-1.7-0.3c-0.5-0.3-0.9-1-1.1-1.4c-0.2-0.5-0.5-1-0.3-1.4
		c0.2-0.4,1.2-1,1.4-1.2c0.2-0.2,0-0.1,0.1,0"/>
	<path class="st13" d="M-73.2-336.6c0.5,0.1,1.4,0.4,1.7,0.8c0.3,0.4,0.3,1.3,0.2,1.8c-0.1,0.6-0.3,1.2-0.7,1.5
		c-0.4,0.3-1,0.4-1.5,0.4c-0.5,0.1-1,0.3-1.5,0c-0.4-0.3-0.9-1.2-1.1-1.7c-0.2-0.5-0.1-1.1,0.1-1.5c0.2-0.4,0.6-0.7,1.1-0.9
		c0.5-0.2,1.5-0.2,1.9-0.2c0.4-0.1,0.4-0.1,0.5-0.1 M-74.2-336.7c0.5-0.1,1.1,0.3,1.6,0.5c0.5,0.2,1,0.3,1.2,0.8
		c0.2,0.4,0,1.4,0,1.9c-0.1,0.6,0,1.2-0.4,1.4c-0.4,0.2-1.3,0.1-1.9,0c-0.6-0.1-1.3-0.2-1.7-0.5c-0.4-0.3-0.6-0.9-0.6-1.4
		c0-0.5,0.2-1,0.5-1.4c0.3-0.4,1.3-0.8,1.5-1c0.2-0.2-0.3-0.2-0.4-0.1"/>
</g>
<g transform="translate(89.58593635108105 362.89672013423336) rotate(0 11.980747152828826 11.703125)">
	<path class="st15" d="M-69.4-290.4c0.5,0.1,1,0.6,1.2,1.1s0.1,1.4,0,1.9c-0.2,0.5-0.7,0.7-1.1,0.9c-0.4,0.3-0.8,0.6-1.3,0.6
		c-0.5,0-1.2-0.5-1.6-0.8s-0.9-0.9-0.9-1.4c0-0.5,0.4-1.2,0.8-1.7c0.3-0.4,0.8-0.8,1.3-0.9s1.7,0.1,2,0.2c0.3,0.1,0,0.5,0,0.5
		 M-70.4-290.9c0.6,0.1,1.5,0.4,1.9,0.9c0.4,0.4,0.6,1.1,0.6,1.6c0,0.5-0.3,1-0.6,1.4c-0.3,0.4-0.7,1.1-1.3,1.2
		c-0.6,0.2-1.5,0-2.1-0.2c-0.5-0.3-0.8-0.7-1-1.3c-0.2-0.6-0.4-1.5-0.2-2c0.2-0.5,0.7-0.8,1.2-1.1c0.5-0.2,1.4-0.3,1.6-0.4
		c0.3,0-0.1,0.1-0.1,0.1"/>
	<path class="st13" d="M-70.2-290.6c0.5,0.1,1,0.2,1.4,0.6c0.4,0.4,0.8,1,0.8,1.5c0,0.5-0.2,1.1-0.6,1.5s-1.2,0.9-1.8,1
		c-0.5,0.1-0.8-0.1-1.3-0.4c-0.5-0.3-1.2-0.8-1.5-1.3c-0.2-0.5-0.1-1.2,0.1-1.7c0.2-0.5,0.8-1,1.4-1.2c0.5-0.2,1.5,0.1,1.9,0.1
		c0.3,0,0.1,0,0.1,0 M-71.1-290.7c0.6-0.1,1.6,0.1,2.1,0.3c0.5,0.2,0.5,0.5,0.7,1c0.2,0.5,0.4,1.6,0.3,2.1c-0.1,0.5-0.5,0.7-1.1,0.9
		c-0.5,0.2-1.6,0.2-2.1,0.1c-0.6-0.1-1-0.3-1.3-0.7c-0.3-0.4-0.5-0.9-0.5-1.4c0.1-0.5,0.4-1,0.8-1.4c0.4-0.4,1.3-1,1.5-1.2
		c0.2-0.2-0.2,0-0.2,0.1"/>
</g>
<g transform="translate(162.48046760108105 383.06468888423336) rotate(0 11.980747152828826 11.703125)">
	<path class="st12" d="M-129.1-306.6c0.4-0.2,1-0.2,1.5,0c0.5,0.2,1.2,0.6,1.4,1.1c0.2,0.5-0.1,1.5-0.3,2c-0.2,0.5-0.3,1-0.8,1.2
		s-1.2,0.2-1.7,0.1c-0.5,0-1.1-0.1-1.4-0.4c-0.4-0.3-0.7-1.1-0.8-1.6c-0.1-0.5,0.1-1,0.5-1.4c0.4-0.4,1.3-1,1.8-1.2
		c0.4-0.2,0.8-0.1,0.8,0 M-129.5-306.4c0.5-0.1,1.3-0.2,1.8,0c0.5,0.1,1.2,0.5,1.4,0.9c0.2,0.4,0.2,1.3,0.1,1.8
		c-0.1,0.5-0.2,0.7-0.6,1c-0.4,0.3-1.1,0.6-1.6,0.6c-0.5,0-1.2-0.4-1.7-0.7c-0.5-0.3-1.1-0.7-1.2-1.2c-0.1-0.5,0.3-1.2,0.6-1.6
		c0.3-0.5,1.1-0.9,1.3-1.1c0.2-0.1,0.1,0.1,0,0.2"/>
	<path class="st13" d="M-128.8-306.9c0.5-0.1,1,0.3,1.4,0.6s0.9,0.9,1,1.3c0.2,0.4,0.1,0.9,0,1.3c-0.2,0.5-0.5,1.4-0.9,1.6
		s-1.2,0-1.7-0.1c-0.5-0.1-1.1-0.4-1.4-0.7c-0.3-0.3-0.6-0.8-0.6-1.3c0-0.5,0.2-1.2,0.7-1.6c0.5-0.4,1.8-0.9,2.3-1
		c0.4-0.1,0.4,0.2,0.3,0.2 M-129.6-306.3c0.4-0.2,1.2-0.7,1.7-0.5c0.5,0.1,0.8,0.7,1.1,1.2c0.4,0.5,1,1.2,1,1.6c0,0.4-0.5,0.7-1,1
		s-1.1,0.7-1.7,0.8c-0.5,0.1-1.1-0.1-1.5-0.3c-0.4-0.2-0.8-0.7-0.9-1.1c-0.1-0.5,0.1-1.1,0.2-1.6c0.2-0.5,0.6-1.2,0.7-1.4
		c0.1-0.2,0,0.3,0.1,0.3"/>
</g>
<g transform="translate(203.03906135108105 333.55297013423336) rotate(0 11.980747152828826 11.703125)">
	<path class="st12" d="M-159.6-267.2c0.4,0.2,0.8,1,1,1.4c0.2,0.4,0.1,0.8,0,1.2c-0.1,0.5-0.2,1.2-0.6,1.5c-0.4,0.3-1.2,0.3-1.8,0.3
		c-0.6-0.1-1.4-0.3-1.8-0.6c-0.4-0.4-0.4-1.1-0.4-1.6c0-0.5,0.1-1.1,0.4-1.5c0.3-0.4,1-0.9,1.6-1c0.5,0,1.4,0.6,1.7,0.7
		s0.1-0.2,0.1-0.2 M-161.7-267.1c0.5-0.2,1.1-0.2,1.6-0.1c0.5,0.1,0.9,0.3,1.3,0.7c0.3,0.4,0.7,1.3,0.6,1.9c-0.1,0.6-0.6,1.1-1,1.5
		c-0.4,0.3-0.9,0.6-1.4,0.6c-0.5,0-1.3-0.4-1.7-0.7c-0.4-0.3-0.7-0.6-0.8-1.1c-0.1-0.4-0.1-1.1,0.1-1.6c0.2-0.5,0.9-0.9,1.1-1.2
		c0.2-0.2,0.1-0.3,0.2-0.3"/>
	<path class="st13" d="M-162.1-267.2c0.5-0.3,1.4-0.4,1.9-0.3c0.6,0.1,1.2,0.4,1.5,0.9c0.3,0.4,0.2,1.2,0.2,1.7
		c0,0.5,0.1,1.1-0.3,1.4c-0.4,0.4-1.3,0.7-1.9,0.8c-0.6,0.1-1.1-0.1-1.5-0.4c-0.4-0.3-0.6-0.8-0.8-1.2c-0.1-0.4-0.2-0.9-0.1-1.3
		c0.2-0.5,0.9-1.2,1.1-1.5c0.3-0.3,0.4-0.2,0.4-0.2 M-160.2-267.3c0.5,0,0.8,0.1,1.1,0.6s0.8,1.5,0.9,2c0.1,0.5-0.1,0.9-0.5,1.2
		c-0.4,0.3-1.4,0.6-1.9,0.6c-0.6,0.1-1.1,0.1-1.6-0.1c-0.4-0.2-0.9-0.7-1-1.1c-0.1-0.4,0-1,0.2-1.5c0.2-0.5,0.7-1.3,1.1-1.6
		c0.4-0.3,1.2-0.2,1.4-0.2c0.3,0,0.3,0.4,0.3,0.4"/>
</g>
<g transform="translate(197.17187385108105 423.68578263423336) rotate(0 11.980747152828826 11.703125)">
	<path class="st12" d="M-156-339.2c0.5,0,1.4,0.2,1.8,0.6c0.3,0.4,0.3,1.3,0.3,1.8c0,0.5,0.1,1.1-0.2,1.4c-0.3,0.4-1,0.5-1.5,0.7
		c-0.5,0.1-1.1,0.3-1.6,0.1c-0.5-0.2-1-0.8-1.3-1.2c-0.2-0.4-0.2-1-0.1-1.5c0.1-0.5,0.3-1.2,0.9-1.5c0.6-0.3,2-0.4,2.4-0.4
		c0.4,0,0.1,0.3,0,0.3 M-156.9-338.9c0.5-0.2,1.3-0.3,1.8-0.1c0.5,0.2,0.8,0.8,1,1.3c0.3,0.4,0.6,0.8,0.5,1.2
		c-0.1,0.4-0.5,1.2-0.9,1.5c-0.4,0.3-1.1,0.4-1.7,0.4c-0.6,0-1.5-0.1-1.9-0.4c-0.4-0.3-0.5-0.9-0.5-1.5c0-0.5,0.1-1.2,0.4-1.7
		c0.3-0.4,1.2-0.7,1.4-0.8c0.2-0.1-0.3,0.2-0.3,0.3"/>
	<path class="st13" d="M-156.9-338.9c0.4-0.1,1.2,0,1.6,0.2c0.5,0.2,0.9,0.4,1.2,0.9c0.2,0.5,0.4,1.5,0.3,2c-0.1,0.5-0.6,0.7-1,0.9
		c-0.4,0.2-1.1,0.5-1.6,0.5c-0.5,0-1.2-0.1-1.6-0.4c-0.4-0.3-0.7-1-0.7-1.6c0-0.6,0.4-1.4,0.7-1.8c0.3-0.4,1.1-0.7,1.3-0.9
		s0,0,0,0.1 M-156.8-339.1c0.4-0.2,0.9,0.1,1.4,0.4c0.5,0.3,1.5,0.8,1.7,1.1c0.3,0.4,0.1,0.7-0.1,1.1c-0.2,0.4-0.7,1.1-1.1,1.5
		c-0.4,0.3-1,0.5-1.4,0.5c-0.5,0-1.1-0.1-1.4-0.4c-0.3-0.3-0.5-0.9-0.6-1.4c-0.1-0.5-0.3-1.4,0-1.8c0.2-0.4,1.1-0.6,1.4-0.7
		c0.3-0.1,0.4-0.1,0.4,0"/>
</g>
<g transform="translate(267.8621281591261 337.2253114010003) rotate(0 11.980747152828826 11.703125)">
	<path class="st12" d="M-212.2-270.1c0.5,0,1,0,1.4,0.4c0.4,0.3,0.9,1.2,1,1.7c0.1,0.5-0.2,1-0.6,1.4c-0.4,0.4-1.2,0.9-1.7,1
		c-0.5,0.1-0.9-0.1-1.4-0.3c-0.4-0.2-1-0.7-1.2-1.2c-0.2-0.5-0.1-1.3,0.1-1.7c0.2-0.4,0.3-0.7,0.8-0.9c0.5-0.3,1.6-0.6,2.1-0.6
		c0.4-0.1,0.6,0.3,0.6,0.3 M-212.8-270.1c0.4-0.1,1-0.2,1.5,0c0.5,0.3,1.1,1,1.3,1.5c0.2,0.5-0.1,1.1-0.3,1.6
		c-0.2,0.5-0.4,1-0.9,1.2c-0.4,0.2-1.2,0.1-1.7,0c-0.5-0.1-1-0.2-1.3-0.5c-0.3-0.3-0.6-1-0.7-1.5c0-0.5,0.1-1.1,0.4-1.5
		c0.3-0.5,1.3-1,1.6-1.2c0.3-0.2,0.2-0.1,0.2,0"/>
	<path class="st13" d="M-211.7-270.4c0.5,0.1,1.1,0.5,1.4,1c0.3,0.4,0.2,1.2,0.1,1.7s0,1-0.4,1.4c-0.4,0.3-1.3,0.6-1.9,0.7
		c-0.6,0-1.1-0.2-1.5-0.5c-0.4-0.3-0.6-0.9-0.7-1.3c-0.1-0.4-0.1-0.9,0-1.3c0.2-0.4,0.5-1.1,0.9-1.3
		C-213.1-270.3-212-270.3-211.7-270.4c0.3,0,0.1,0.1,0.1,0.1 M-212.4-270.5c0.5,0,1.4,0.7,1.9,1.1c0.4,0.4,0.8,0.7,0.8,1.1
		c0,0.4-0.5,1-0.8,1.4c-0.3,0.4-0.8,0.9-1.2,1.2c-0.5,0.2-1.2,0.2-1.6,0.1c-0.4-0.1-0.8-0.5-1.1-1c-0.2-0.5-0.3-1.5-0.2-2
		c0.1-0.6,0.3-1.1,0.7-1.3c0.4-0.2,1.6,0,1.9-0.1c0.3-0.1-0.1-0.4-0.1-0.4"/>
</g>
<g transform="translate(271.39453010108105 425.40843888423336) rotate(0 11.980747152828826 11.703125)">
	<path class="st12" d="M-214.6-340.6c0.5,0.1,0.7,0.8,1.1,1.2c0.3,0.4,0.8,1,0.8,1.4c0,0.4-0.4,0.9-0.7,1.3c-0.3,0.4-0.9,1-1.4,1.1
		c-0.5,0.1-1.3-0.1-1.7-0.4c-0.5-0.2-0.9-0.6-1-1.1c-0.2-0.5-0.3-1.3-0.1-1.8c0.2-0.5,0.9-1.1,1.5-1.3c0.5-0.2,1.3,0,1.7,0
		c0.4,0,0.4,0,0.4,0 M-214.3-340.4c0.5,0.1,0.8,0.8,1.1,1.2c0.3,0.4,0.7,0.7,0.6,1.2c0,0.5-0.4,1.2-0.9,1.5
		c-0.4,0.3-1.1,0.4-1.7,0.5c-0.6,0-1.5,0-2-0.3c-0.4-0.3-0.6-0.9-0.6-1.4c-0.1-0.5,0-1.3,0.3-1.7c0.3-0.4,0.8-0.8,1.3-0.9
		c0.4-0.1,1.1,0.2,1.4,0.2c0.2,0-0.1-0.2,0-0.3"/>
	<path class="st13" d="M-216.4-340.1c0.4-0.3,1.1-0.6,1.7-0.4c0.5,0.1,1.2,0.9,1.5,1.3c0.3,0.4,0.4,0.7,0.4,1.2
		c-0.1,0.5-0.3,1.2-0.7,1.6c-0.4,0.4-1.1,0.9-1.6,1c-0.5,0.1-1.2-0.2-1.6-0.5c-0.4-0.4-0.6-1.1-0.7-1.6c-0.1-0.5-0.2-1.1,0-1.5
		c0.2-0.5,1.1-1.1,1.4-1.3c0.3-0.2,0.3,0.1,0.3,0.1 M-214.5-340.1c0.5,0.2,1.5,0.7,1.7,1.1c0.3,0.4,0.1,0.7-0.1,1.1
		c-0.2,0.4-0.6,1.1-1.1,1.5c-0.4,0.3-1,0.5-1.4,0.6c-0.5,0-1.1-0.1-1.4-0.4c-0.3-0.3-0.5-0.9-0.6-1.4c-0.1-0.5-0.3-1.4,0-1.8
		s0.8-0.6,1.4-0.7c0.6-0.1,1.8,0,2.1,0c0.3,0-0.4,0.1-0.5,0.2"/>
</g>
<g>
	<g transform="translate(50.94636446525715 373.2982872399903) rotate(0 21.475397464432433 -0.27930898363246115)">
		<path class="st13" d="M-42.1-299.2c1.4,0,6.9,0.2,8.3,0.3 M-42.3-298.8c1.5,0,7.5-0.4,9-0.5"/>
	</g>
</g>
<g>
	<g transform="translate(55.5603970741588 445.020594784504) rotate(0 17.447688790684822 -4.2491851966408944)">
		<path class="st13" d="M-46.1-356.2c1.2-0.4,6.3-1.6,7.6-1.9 M-45.8-355.8c1.2-0.3,5.9-1.7,7.1-2.1"/>
	</g>
</g>
<g>
	<g transform="translate(116.22320967329256 382.5426599784459) rotate(0 21.28366711465776 6.488675191567268)">
		<path class="st13" d="M-94.3-306.3c1.4,0.5,7.1,2.2,8.6,2.6 M-94-306.4c1.4,0.4,7.2,2,8.6,2.4"/>
	</g>
</g>
<g>
	<g transform="translate(118.04527659943028 425.6955524967886) rotate(0 19.349048600391313 -12.899871152097376)">
		<path class="st13" d="M-95.5-340.9c1.4-0.9,6.7-4.5,7.9-5.3 M-95.8-340.5c1.4-0.9,6.7-4.7,8.1-5.5"/>
	</g>
</g>
<g>
	<g transform="translate(180.63698682380596 385.6914768546457) rotate(0 13.457175929598066 -13.140341041237093)">
		<path class="st13" d="M-145.6-308.7c0.9-0.9,4.5-4.8,5.4-5.7 M-145.3-308.9c1-0.9,4.7-4.4,5.5-5.3"/>
	</g>
</g>
<g>
	<g transform="translate(229.82041400199955 345.4640150982838) rotate(0 17.385456514884766 1.0489748342630492)">
		<path class="st13" d="M-184.4-277c1.1,0.1,5.4,0.4,6.6,0.5 M-184.6-276.6c1.2,0.1,6,0.3,7.2,0.3"/>
	</g>
</g>
<g>
	<g transform="translate(179.65139094523306 402.23242779920423) rotate(0 9.110420890766136 9.574450757354498)">
		<path class="st13" d="M-144.8-322.2c0.7,0.7,3.4,3.7,4.1,4.3 M-144.5-321.8c0.7,0.6,3,3,3.5,3.6"/>
	</g>
</g>
<g>
	<g transform="translate(223.49248093613937 440.7355387313068) rotate(0 24.06179139894698 -0.3511824149984477)">
		<path class="st13" d="M-179.7-352.7c1.6,0,8.6-0.2,10.2-0.2 M-179.4-352.9c1.6,0,8.2,0.2,9.8,0.3"/>
	</g>
</g>
<g>
	<g transform="translate(299.29303285968285 434.77523593821564) rotate(0 8.238260600248282 -13.110778072518428)">
		<path class="st13" d="M-239.9-347.7c0.6-0.9,3-4.9,3.6-5.8 M-240.1-347.8c0.6-0.9,3.1-4.6,3.7-5.5"/>
	</g>
</g>
<g>
	<g transform="translate(296.6722314827422 355.7859391196641) rotate(0 14.847153007534416 9.182452156734655)">
		<path class="st13" d="M-237.5-285.2c1,0.6,4.4,3.3,5.3,3.9 M-237.7-285.4c1.1,0.7,5,3.7,5.9,4.5"/>
	</g>
</g>
<g transform="translate(51.65271242689391 491.56208655226357) rotate(0 122.5 12.5)">
	<text transform="matrix(1 0 0 1 -46.0929 -385.7327)" class="st2 st3 st4">decorated scaffold </text>
</g>
<g transform="translate(729.0070276360134 381.4150829688835) rotate(0 13 17.5)">
	<path class="st16" d="M-578.1-305.1c0.5,0.3,1.1,1,1.4,1.6c0.3,0.6,0.4,1.5,0.3,2.2c-0.1,0.7-0.7,1.7-1.2,2.1
		c-0.5,0.5-1.2,0.6-1.7,0.6c-0.5,0-1.2-0.4-1.6-0.9c-0.4-0.5-0.8-1.3-0.8-2c-0.1-0.7,0.2-1.6,0.4-2.3s0.6-1.5,1.1-1.7
		c0.5-0.2,1.6,0.2,2,0.3c0.4,0.1,0.4,0.1,0.4,0.2 M-579.7-305.3c0.5-0.3,1-0.4,1.5-0.1c0.5,0.3,1.1,1.5,1.4,2.1c0.2,0.7,0.2,1.3,0,2
		c-0.2,0.7-0.6,1.8-1.1,2.3c-0.5,0.5-1.1,0.9-1.7,0.8c-0.6,0-1.3-0.5-1.7-1.1c-0.3-0.6-0.4-1.7-0.3-2.5c0-0.8,0.3-1.5,0.5-2.1
		c0.2-0.6,0.7-1.3,1-1.6c0.2-0.3,0.2,0,0.3,0"/>
	<path class="st13" d="M-579.7-305.6c0.5-0.2,1.4,0.4,1.9,0.8c0.5,0.5,1,1.2,1.2,1.9c0.2,0.7,0.1,1.8-0.1,2.4
		c-0.2,0.7-0.7,1.2-1.2,1.5s-1.4,0.5-1.9,0.4c-0.6-0.1-1.1-0.4-1.4-1c-0.3-0.6-0.4-1.8-0.4-2.6c0-0.8-0.1-1.6,0.3-2.2
		c0.4-0.5,1.6-0.8,2.1-1c0.5-0.2,0.8-0.2,0.8-0.1 M-578.2-305.6c0.5,0.3,1,1.2,1.3,2c0.3,0.7,0.6,1.6,0.5,2.3
		c-0.1,0.7-0.7,1.4-1.1,1.9c-0.4,0.5-0.8,0.8-1.4,0.9c-0.6,0.1-1.7-0.1-2.2-0.5c-0.5-0.4-0.8-1.2-0.9-1.9c-0.1-0.8,0.1-1.9,0.4-2.6
		c0.3-0.7,1.1-1.4,1.6-1.6c0.5-0.2,1.3,0.3,1.5,0.3c0.3,0.1,0,0,0,0"/>
</g>
<g transform="translate(424.51687129830157 354.3558263262823) rotate(0 19.048828125 18.607421875)">
	<path class="st16" d="M-333.8-283.4c0.8,0.3,1.6,1.2,1.9,1.9c0.3,0.7,0.2,1.6,0,2.4c-0.3,0.7-0.8,1.6-1.5,2.1s-1.9,0.8-2.8,0.7
		c-0.9-0.1-1.8-0.5-2.4-1.1c-0.6-0.6-1-1.5-1-2.3c0-0.9,0.4-2.1,0.8-2.8c0.5-0.7,1.2-1.3,2-1.4s2.6,0.6,3.3,0.8
		c0.6,0.2,0.5,0.3,0.4,0.3 M-335.4-284c0.7-0.1,1.6,0.6,2.2,1.1c0.6,0.5,1.5,1.3,1.6,2.1c0.1,0.8-0.5,1.8-1,2.5
		c-0.5,0.7-1.1,1.4-1.9,1.6c-0.7,0.2-1.8,0.1-2.5-0.2c-0.8-0.2-1.6-0.7-2-1.3c-0.4-0.6-0.8-1.6-0.6-2.5c0.2-0.9,1-2.2,1.7-2.7
		c0.7-0.5,2-0.4,2.4-0.4c0.4,0-0.1,0.2-0.1,0.3"/>
	<path class="st13" d="M-335-283.9c0.8,0.1,2,0.8,2.5,1.5c0.6,0.6,0.8,1.6,0.8,2.4c0,0.8-0.4,1.8-1,2.4c-0.6,0.6-1.8,0.9-2.6,1.1
		c-0.9,0.1-1.9,0-2.6-0.4c-0.7-0.4-1.1-1.1-1.3-1.9c-0.3-0.8-0.5-2.1-0.2-2.9c0.3-0.8,1-1.6,1.9-1.9c0.9-0.3,2.7,0.1,3.3,0.1
		c0.6,0,0.2-0.1,0.2,0 M-334.7-283.7c0.8,0.2,2,1.1,2.5,1.8c0.5,0.7,0.6,1.5,0.5,2.3c-0.2,0.8-0.9,2.1-1.5,2.6
		c-0.7,0.5-1.7,0.5-2.5,0.5c-0.8-0.1-1.7-0.3-2.2-0.8c-0.6-0.5-1.1-1.3-1.3-2c-0.2-0.7-0.2-1.6,0.1-2.3c0.3-0.7,1.1-1.7,1.9-2
		c0.8-0.3,2.5-0.1,3-0.1c0.5,0,0-0.1-0.1,0"/>
</g>
<g transform="translate(431.11399293533134 428.6509676097034) rotate(0 19.048828124999943 18.607421875)">
	<path class="st16" d="M-341.8-342.7c0.8-0.3,1.9-0.3,2.7,0c0.7,0.3,1.4,1.1,1.7,1.8c0.3,0.7,0.4,1.6,0.3,2.4
		c-0.2,0.8-0.7,1.7-1.4,2.2c-0.7,0.5-1.7,0.8-2.5,0.8c-0.8,0-1.7-0.4-2.4-1c-0.6-0.6-1.4-1.7-1.5-2.5c-0.1-0.8,0-1.7,0.7-2.3
		c0.7-0.7,2.8-1.4,3.6-1.6c0.8-0.2,1.1,0.2,1.1,0.2 M-340.2-343.2c0.7,0.1,1.8,1.2,2.3,1.8c0.5,0.6,0.7,1.2,0.6,2
		c-0.1,0.8-0.5,2-1,2.7c-0.6,0.7-1.5,1.3-2.3,1.4c-0.8,0.1-2-0.1-2.6-0.6c-0.6-0.5-1-1.5-1.2-2.3c-0.2-0.8-0.1-1.6,0.1-2.3
		c0.2-0.7,0.5-1.7,1.2-2.1c0.7-0.4,2.4-0.4,3-0.4c0.5,0,0.1,0.1,0.2,0.1"/>
	<path class="st13" d="M-339.1-342.5c0.8,0.3,1.6,1.1,1.9,1.9s0.3,1.8,0.1,2.6c-0.2,0.7-0.9,1.4-1.6,1.8c-0.7,0.4-1.9,0.7-2.7,0.6
		c-0.8,0-1.7-0.3-2.2-0.9c-0.5-0.6-0.8-1.8-0.9-2.7c-0.1-0.8,0-1.8,0.4-2.4c0.4-0.6,1.3-1.1,2.2-1.2c0.9-0.1,2.9,0.2,3.5,0.3
		c0.6,0.2,0.2,0.7,0.1,0.8 M-342.3-342.7c0.7-0.3,2.1-0.3,2.8-0.1c0.8,0.2,1.4,0.7,1.8,1.4c0.4,0.7,1,1.7,0.8,2.6
		c-0.2,0.9-1.1,2-1.8,2.6c-0.7,0.6-1.7,1.1-2.5,1.1c-0.8,0-1.8-0.5-2.3-1.1c-0.6-0.6-0.9-1.5-1.1-2.3c-0.2-0.7-0.2-1.6,0.1-2.2
		c0.4-0.7,1.7-1.4,2-1.7c0.3-0.3-0.1-0.2,0-0.3"/>
</g>
<g transform="translate(507.972226677211 420.52757950923336) rotate(0 11.980747152828826 11.703125)">
	<path class="st16" d="M-402.5-336.3c0.5,0.1,0.9,0.4,1.1,0.8c0.2,0.4,0.5,1.1,0.3,1.6c-0.1,0.5-0.6,1.2-1,1.5
		c-0.4,0.4-1,0.6-1.6,0.6s-1.1-0.1-1.5-0.5c-0.4-0.4-0.7-1.2-0.8-1.7c-0.1-0.5-0.1-1.2,0.1-1.6c0.3-0.4,0.9-0.7,1.4-0.8
		c0.6-0.1,1.6,0,2,0c0.4,0,0.2-0.1,0.1-0.1 M-402.7-336.4c0.5,0.1,1.4,0.5,1.6,0.9c0.2,0.4-0.1,1.1-0.2,1.6
		c-0.1,0.5-0.3,1.1-0.7,1.4c-0.4,0.3-0.9,0.4-1.5,0.4c-0.5,0-1.2,0.1-1.6-0.2c-0.4-0.3-1-0.8-1-1.4c-0.1-0.6,0.3-1.6,0.6-2.1
		c0.3-0.5,0.7-0.6,1.2-0.6c0.5-0.1,1.3,0.2,1.6,0.3c0.3,0.1,0.1,0.1,0.1,0.1"/>
	<path class="st13" d="M-404.1-336.4c0.5-0.2,1.2-0.2,1.6,0c0.5,0.2,1,0.7,1.2,1.1c0.2,0.4,0.1,1,0,1.5c-0.1,0.5-0.5,1.2-0.8,1.6
		c-0.4,0.4-0.8,0.7-1.3,0.7c-0.5,0-1.4-0.5-1.8-0.9s-0.7-1-0.7-1.4c0-0.5,0.1-0.9,0.5-1.3c0.4-0.5,1.3-1.3,1.7-1.4
		c0.4-0.2,0.9,0.4,1,0.4 M-402.8-336.4c0.5,0.1,1.1,0.2,1.3,0.7c0.3,0.4,0.3,1.4,0.2,1.9c-0.1,0.5-0.3,0.7-0.7,1
		c-0.3,0.3-0.8,0.7-1.2,0.8c-0.4,0.1-1,0-1.5-0.2c-0.5-0.2-1-0.6-1.2-1c-0.2-0.5-0.2-1.4,0.1-1.9c0.3-0.5,1-0.9,1.5-1.2
		c0.5-0.2,1.4-0.3,1.6-0.2c0.2,0-0.2,0.3-0.3,0.4"/>
</g>
<g transform="translate(504.10280764938216 362.89672013423336) rotate(0 11.980747152828826 11.703125)">
	<path class="st16" d="M-399.4-290.6c0.4,0.1,0.8,0.7,1,1.1c0.2,0.4,0.3,0.9,0.3,1.4c-0.1,0.5-0.4,1.1-0.7,1.4
		c-0.4,0.3-1,0.6-1.5,0.6c-0.5,0-1.1-0.1-1.5-0.5c-0.4-0.3-1-1.1-1.1-1.6c-0.1-0.5,0-1,0.4-1.4c0.3-0.4,1-0.8,1.6-1
		c0.6-0.1,1.6,0.1,2,0.1c0.3,0.1,0.1,0.2,0.1,0.2 M-400.3-290.5c0.5,0,1-0.1,1.3,0.2c0.3,0.3,0.6,1.1,0.7,1.7c0.1,0.6,0,1.3-0.3,1.7
		c-0.3,0.4-0.9,0.8-1.3,0.9s-0.8-0.2-1.2-0.4c-0.4-0.2-0.9-0.4-1.2-0.8c-0.3-0.4-0.8-1.2-0.7-1.8c0.1-0.5,0.7-1.1,1.2-1.4
		c0.5-0.3,1.5-0.3,1.8-0.4c0.3-0.1,0-0.1,0-0.1"/>
	<path class="st13" d="M-401.3-290.4c0.5-0.2,1.1-0.2,1.6-0.1c0.5,0.1,1.1,0.3,1.3,0.7c0.3,0.4,0.3,1.1,0.2,1.6
		c-0.1,0.6-0.3,1.4-0.6,1.7c-0.3,0.3-0.9,0.3-1.4,0.3c-0.6,0-1.5-0.1-1.9-0.4s-0.8-0.7-0.9-1.2c-0.1-0.5,0.2-1.4,0.5-1.9
		C-402.2-290.1-401.6-290.3-401.3-290.4c0.2-0.2,0.5-0.1,0.5-0.1 M-401.3-290.4c0.4-0.3,0.9-0.5,1.4-0.5c0.5,0.1,1.5,0.4,1.7,0.9
		c0.3,0.5,0.1,1.3,0,1.9c-0.1,0.6-0.3,1.3-0.7,1.6c-0.3,0.4-0.9,0.5-1.3,0.5c-0.4,0-0.9-0.2-1.4-0.4c-0.4-0.2-1.1-0.5-1.3-1
		c-0.2-0.4-0.1-1.1,0.1-1.7s0.9-1.2,1.1-1.5c0.2-0.3,0.3-0.3,0.4-0.2"/>
</g>
<g transform="translate(576.9973388993826 383.06468888423336) rotate(0 11.980747152828826 11.703125)">
	<path class="st16" d="M-457.5-306.6c0.4,0.1,1,0.6,1.3,1.1s0.2,1.2,0,1.7c-0.1,0.5-0.5,1.1-0.9,1.4c-0.4,0.3-1,0.6-1.5,0.5
		c-0.5-0.1-1.1-0.6-1.5-0.9c-0.4-0.4-0.9-0.9-0.9-1.4c-0.1-0.5,0.2-0.9,0.5-1.3c0.3-0.4,0.8-0.9,1.4-1.1c0.6-0.1,1.8,0,2.2,0.2
		c0.4,0.1,0.4,0.6,0.4,0.7 M-458.6-307c0.5-0.1,0.8,0,1.2,0.3c0.4,0.3,1.1,0.9,1.3,1.3c0.2,0.5,0.3,1.1,0.1,1.6
		c-0.2,0.5-0.7,1.3-1.2,1.7c-0.5,0.3-1.4,0.5-1.9,0.3c-0.5-0.2-0.9-1-1.2-1.4s-0.6-0.8-0.6-1.2c0-0.4,0.2-1,0.6-1.3
		c0.4-0.3,1.3-0.6,1.6-0.7c0.2-0.1-0.1-0.1-0.2-0.1"/>
	<path class="st13" d="M-458.4-306.8c0.5-0.1,1.2,0.2,1.6,0.5c0.4,0.3,0.5,0.7,0.6,1.2c0.1,0.5,0,1.3-0.2,1.8
		c-0.2,0.5-0.5,1.1-1,1.2c-0.5,0.2-1.4-0.1-2-0.3c-0.5-0.2-1-0.6-1.2-1c-0.2-0.4-0.2-0.8-0.2-1.3c0.1-0.5,0.1-1.4,0.5-1.7
		c0.4-0.3,1.6-0.2,2-0.3c0.3-0.1,0.1-0.2,0.1-0.2 M-458.4-306.8c0.4,0,0.9,0.6,1.3,0.9s0.7,0.5,0.8,0.9c0.1,0.4,0.2,1.2,0,1.6
		c-0.2,0.5-0.6,1-1.1,1.2c-0.5,0.2-1.4,0.4-1.9,0.3c-0.5-0.2-1.1-0.9-1.3-1.3c-0.2-0.5-0.1-1.1,0.1-1.6c0.1-0.5,0.5-1.2,0.8-1.5
		c0.3-0.3,1.1-0.2,1.2-0.2c0.2,0-0.3,0-0.2,0"/>
</g>
<g transform="translate(617.5559326493822 333.55297013423336) rotate(0 11.980747152828826 11.703125)">
	<path class="st16" d="M-489.7-267.1c0.4,0.2,0.9,0.6,1.1,1c0.2,0.4,0.3,1.1,0.2,1.6c-0.1,0.5-0.5,1.1-1,1.4c-0.4,0.3-1,0.5-1.6,0.5
		c-0.6-0.1-1.4-0.5-1.8-0.9c-0.4-0.4-0.6-0.9-0.6-1.3c0-0.5,0.4-1.1,0.8-1.5c0.3-0.4,0.8-0.9,1.3-0.9c0.6-0.1,1.6,0.4,2,0.6
		c0.4,0.2,0.6,0.7,0.6,0.7 M-491.8-267.4c0.4-0.2,1.1,0,1.6,0.2c0.5,0.2,1.1,0.7,1.4,1.2c0.3,0.5,0.3,1.1,0.3,1.5
		c0,0.4,0,0.8-0.3,1.1c-0.3,0.3-0.9,0.8-1.5,0.9c-0.6,0-1.7-0.3-2.1-0.7c-0.4-0.4-0.5-0.9-0.5-1.4c0-0.5,0.2-1.1,0.4-1.5
		c0.3-0.5,1.1-1.1,1.3-1.2c0.2-0.2-0.1,0.1-0.2,0.1"/>
	<path class="st13" d="M-489.9-267.1c0.5,0.1,1.1,0.4,1.3,0.7c0.2,0.4,0.2,1.1,0.2,1.6c-0.1,0.6-0.3,1.4-0.6,1.7
		c-0.3,0.3-0.9,0.3-1.4,0.3c-0.6,0-1.5-0.2-1.9-0.4c-0.5-0.3-0.8-0.7-0.9-1.2c-0.1-0.5,0.3-1.4,0.5-1.9c0.3-0.4,0.4-0.7,1-0.8
		c0.5-0.1,1.9,0,2.2,0.1c0.4,0,0,0.1-0.1,0.1 M-490.2-267.5c0.5,0,1.5,0.4,1.7,0.9c0.3,0.5,0.1,1.3,0,1.9c-0.1,0.6-0.3,1.3-0.6,1.7
		c-0.3,0.4-0.9,0.5-1.3,0.5c-0.4,0-0.9-0.2-1.4-0.4c-0.4-0.2-1.1-0.5-1.3-1c-0.2-0.4-0.1-1.1,0.1-1.7c0.2-0.5,0.6-1.2,1.1-1.5
		c0.5-0.3,1.7-0.4,2-0.4c0.3,0,0,0.5,0,0.6"/>
</g>
<g transform="translate(611.6887451493822 423.68578263423336) rotate(0 11.980747152828826 11.703125)">
	<path class="st16" d="M-485-338.9c0.4,0.2,0.8,0.8,1,1.3c0.2,0.5,0.3,1.2,0.2,1.7c-0.1,0.5-0.5,1.1-0.9,1.4c-0.4,0.3-1,0.2-1.5,0.1
		c-0.5-0.1-1.3-0.3-1.7-0.6s-0.5-0.7-0.5-1.2s0.2-1.2,0.5-1.6c0.3-0.5,0.7-1.1,1.3-1.2c0.6-0.1,1.8,0.5,2.3,0.7
		c0.5,0.2,0.6,0.6,0.6,0.5 M-486.3-339.4c0.5,0,1.4,0.2,1.9,0.6c0.5,0.3,0.9,0.8,1,1.4c0.1,0.6,0,1.5-0.3,2.1c-0.3,0.5-1,1-1.5,1.1
		c-0.5,0.1-0.9-0.3-1.4-0.5c-0.5-0.2-1.1-0.3-1.4-0.7c-0.3-0.4-0.5-0.9-0.4-1.4c0.1-0.5,0.5-1.1,0.9-1.4c0.4-0.4,1.1-0.6,1.4-0.8
		s0.1-0.1,0.1,0"/>
	<path class="st13" d="M-485.6-339.1c0.4,0,0.9,0.3,1.2,0.6c0.3,0.4,0.6,1.1,0.6,1.7c0.1,0.6,0.1,1.3-0.2,1.7
		c-0.3,0.4-1.2,0.5-1.7,0.5c-0.5,0-1.1-0.1-1.6-0.3c-0.4-0.2-0.7-0.5-0.9-1c-0.2-0.5-0.5-1.4-0.3-1.9c0.2-0.5,0.8-0.7,1.3-0.9
		c0.6-0.2,1.7-0.4,2.1-0.5s0.4,0.1,0.4,0.2 M-485.6-338.7c0.4,0.1,1,0.1,1.4,0.4c0.3,0.3,0.7,1.1,0.7,1.6c0,0.5-0.2,1.2-0.6,1.6
		c-0.4,0.4-1.2,0.9-1.8,0.9c-0.6,0-1.3-0.4-1.6-0.7c-0.4-0.3-0.5-0.8-0.6-1.3c-0.1-0.5,0-1.3,0.1-1.7c0.2-0.4,0.5-0.6,0.9-0.8
		S-486-338.7-485.6-338.7c0.3-0.2,0.4-0.5,0.5-0.4"/>
</g>
<g transform="translate(682.3789994574272 337.22531140100017) rotate(0 11.980747152828826 11.703125)">
	<path class="st16" d="M-542.4-270.5c0.5-0.1,1.3,0.2,1.7,0.5c0.4,0.3,0.8,0.9,0.9,1.5c0.1,0.5,0.1,1.3-0.2,1.7
		c-0.3,0.4-1,0.7-1.6,0.9c-0.5,0.2-1.2,0.4-1.6,0.2c-0.4-0.1-0.8-0.5-1-0.9c-0.2-0.4-0.4-1.1-0.4-1.6c0-0.5,0-1.2,0.6-1.5
		c0.5-0.3,2-0.3,2.5-0.4s0.7,0.1,0.6,0.1 M-541.8-270.1c0.5,0.2,1.1,0.7,1.3,1.2s0.3,1.1,0.3,1.5c0,0.4-0.1,0.8-0.4,1.1
		c-0.3,0.3-0.9,0.8-1.5,0.8c-0.6,0-1.7-0.3-2.1-0.7c-0.4-0.4-0.5-1-0.5-1.5c0-0.5,0.2-1.1,0.5-1.5c0.3-0.5,0.8-1,1.3-1.2
		c0.5-0.2,1.3,0.1,1.5,0.1c0.2,0-0.1-0.1-0.1-0.1"/>
	<path class="st13" d="M-541.6-270.4c0.5,0.1,0.9,0.5,1.2,1c0.3,0.5,0.6,1.4,0.6,1.9c0,0.5-0.2,0.9-0.6,1.2
		c-0.4,0.3-1.3,0.7-1.9,0.8c-0.6,0.1-1.2,0-1.6-0.3c-0.4-0.3-0.5-1.1-0.7-1.6s-0.4-0.9-0.1-1.3c0.2-0.4,1-1,1.5-1.1
		c0.6-0.2,1.5,0,1.9,0.1c0.4,0,0.3,0.2,0.4,0.2 M-541.8-270.5c0.5,0.1,0.7,0.5,1,1c0.3,0.4,0.7,1.1,0.7,1.6c0.1,0.5,0,1-0.2,1.4
		c-0.2,0.4-0.6,0.7-1.1,0.9c-0.5,0.2-1.4,0.4-2,0.2c-0.5-0.2-0.9-0.7-1.2-1.2c-0.2-0.5-0.4-1.4-0.2-1.9c0.2-0.6,0.8-1.3,1.3-1.6
		c0.5-0.2,1.4,0.1,1.6,0.1c0.2,0-0.4-0.1-0.4,0"/>
</g>
<g transform="translate(685.9114013993822 425.40843888423336) rotate(0 11.980747152828826 11.703125)">
	<path class="st16" d="M-545.6-340.4c0.5-0.1,1.2,0.1,1.6,0.4c0.4,0.3,0.9,0.9,1.1,1.4c0.2,0.4,0.2,0.9,0,1.3
		c-0.2,0.4-0.9,0.9-1.3,1.2c-0.5,0.3-1,0.5-1.5,0.5c-0.5-0.1-1-0.5-1.3-1c-0.3-0.5-0.5-1.3-0.5-1.8c0-0.5,0.2-1,0.7-1.3
		c0.5-0.3,1.7-0.6,2.1-0.8c0.4-0.1,0.2-0.1,0.2-0.1 M-545.9-340.5c0.5-0.2,1.3-0.3,1.8,0c0.5,0.2,1,1,1.2,1.5c0.2,0.5,0.1,1.2,0,1.7
		c-0.1,0.4-0.2,0.6-0.6,0.9c-0.4,0.3-1.1,0.8-1.7,0.9c-0.6,0.1-1.2-0.1-1.6-0.3c-0.4-0.3-0.7-0.9-0.8-1.4c-0.1-0.5-0.1-1.3,0.1-1.8
		c0.2-0.5,1.1-1,1.3-1.2c0.2-0.1-0.1,0.2-0.1,0.3"/>
	<path class="st13" d="M-545.3-340.6c0.5,0,1.1,0.3,1.6,0.7c0.5,0.4,1,1.1,1.1,1.5c0.1,0.5-0.3,0.9-0.6,1.3
		c-0.3,0.4-0.7,0.8-1.2,1.1c-0.4,0.2-1,0.5-1.5,0.3c-0.5-0.2-1.3-0.9-1.6-1.3c-0.3-0.4-0.1-0.8,0-1.3c0.1-0.5,0.3-1.3,0.8-1.7
		c0.5-0.4,1.7-0.5,2.1-0.6c0.4,0,0.4,0.4,0.4,0.5 M-545.5-340.7c0.5-0.2,1.4,0.1,1.9,0.5c0.5,0.3,1,0.9,1.1,1.5
		c0.1,0.6-0.1,1.4-0.4,1.9c-0.3,0.5-0.8,0.7-1.2,0.8c-0.4,0.2-0.9,0.3-1.3,0.1c-0.5-0.1-1-0.6-1.4-1c-0.4-0.4-0.7-0.8-0.7-1.2
		c0-0.5,0.1-1.1,0.5-1.5c0.4-0.4,1.8-1,2.1-1.1s-0.1,0.3-0.1,0.4"/>
</g>
<g>
	<g transform="translate(465.4632357635587 373.29828723999043) rotate(0 21.0102032020219 0.18091012307894516)">
		<path class="st13" d="M-372-299c1.4,0,7.2,0,8.5,0 M-372.2-299.2c1.4,0,7.1,0.5,8.6,0.5"/>
	</g>
</g>
<g>
	<g transform="translate(470.07726837246037 445.020594784504) rotate(0 17.014345585060596 -4.784575722366583)">
		<path class="st13" d="M-375.8-356c1.2-0.4,6.1-1.8,7.3-2.2 M-376.1-356.1c1.2-0.4,6.1-1.5,7.4-1.8"/>
	</g>
</g>
<g>
	<g transform="translate(530.7400809715941 382.5426599784459) rotate(0 21.216987082731407 5.961083244236136)">
		<path class="st13" d="M-423.9-306.3c1.4,0.4,6.9,1.9,8.2,2.4 M-424.2-306.5c1.4,0.4,7.4,2.3,8.9,2.8"/>
	</g>
</g>
<g>
	<g transform="translate(532.5621478977318 425.6955524967886) rotate(0 19.408721295635928 -13.100110198481104)">
		<path class="st13" d="M-425.5-340.9c1.3-0.9,6.4-4.5,7.7-5.3 M-425.8-340.5c1.4-0.9,7.1-4.6,8.5-5.5"/>
	</g>
</g>
<g>
	<g transform="translate(595.1538581221075 385.6914768546457) rotate(0 13.27814711082317 -13.197082339590395)">
		<path class="st13" d="M-475.6-309c0.8-0.9,4.5-4.3,5.4-5.1 M-475.2-308.6c0.9-1,4.7-5,5.6-6"/>
	</g>
</g>
<g>
	<g transform="translate(644.3372853003007 345.4640150982838) rotate(0 16.682581491037354 0.5569190210725878)">
		<path class="st13" d="M-514.6-277.1c1.2,0.1,5.9,0.6,7.1,0.6 M-514.3-276.6c1.1,0.1,5.5-0.2,6.6-0.2"/>
	</g>
</g>
<g>
	<g transform="translate(594.1682622435346 402.23242779920423) rotate(0 9.404794586318417 9.621762844142552)">
		<path class="st13" d="M-474.7-322c0.7,0.7,3.6,3.4,4.2,4 M-474.4-322.2c0.7,0.7,3.1,3.2,3.8,3.9"/>
	</g>
</g>
<g>
	<g transform="translate(638.0093522344405 440.7355387313068) rotate(0 23.90233609373479 -0.35344877395880303)">
		<path class="st13" d="M-509.4-352.5c1.7,0,8.4-0.4,9.9-0.5 M-509.7-352.6c1.7,0,8.4-0.1,10.1-0.1"/>
	</g>
</g>
<g>
	<g transform="translate(713.8099041579844 434.77523593821564) rotate(0 9.652970671274716 -13.123858065945228)">
		<path class="st13" d="M-569.6-347.7c0.6-0.9,2.8-4.8,3.4-5.7 M-569.8-347.8c0.7-0.9,3.5-4.5,4.1-5.4"/>
	</g>
</g>
<g>
	<g transform="translate(711.1891027810439 355.7859391196641) rotate(0 14.827206017558524 9.66341539388526)">
		<path class="st13" d="M-567.5-285.3c0.9,0.6,4.5,3.3,5.4,4 M-567.7-284.8c1,0.6,5,3.3,6.1,3.9"/>
	</g>
</g>
<g transform="translate(456.7619494671576 498.02669861264) rotate(0 133 12.5)">
	<text transform="matrix(1 0 0 1 -373.7444 -392.1973)" class="st2 st3 st4">undecorated scaffold </text>
</g>
</svg>
